<svg width="23" height="24" viewBox="0 0 23 24" fill="none" xmlns="http://www.w3.org/2000/svg">
<path d="M8.34708 9.637C8.76868 9.19707 9.26919 8.8481 9.82003 8.61001C10.3709 8.37193 10.9613 8.24938 11.5575 8.24938C12.1537 8.24938 12.7441 8.37193 13.295 8.61001C13.8458 8.8481 14.3463 9.19707 14.7679 9.637C15.1895 10.0769 15.5239 10.5992 15.7521 11.174C15.9803 11.7488 16.0977 12.3648 16.0977 12.987C16.0977 13.6092 15.9803 14.2252 15.7521 14.8C15.5239 15.3748 15.1895 15.8971 14.7679 16.337C13.9165 17.2255 12.7616 17.7246 11.5575 17.7246C10.3534 17.7246 9.19854 17.2255 8.34708 16.337C7.49563 15.4485 7.01729 14.2435 7.01729 12.987C7.01729 11.7305 7.49563 10.5255 8.34708 9.637ZM13.6131 10.563C13.0083 10.0066 12.2196 9.71784 11.4141 9.75788C10.6087 9.79793 9.8499 10.1636 9.29847 10.7775C8.74704 11.3914 8.44634 12.2052 8.4601 13.0464C8.47385 13.8877 8.80098 14.6903 9.37216 15.2842C9.94334 15.8781 10.7137 16.2166 11.5199 16.2279C12.3262 16.2393 13.105 15.9226 13.6913 15.345C14.2776 14.7674 14.6254 13.9743 14.6609 13.1337C14.6964 12.2931 14.4168 11.4712 13.8815 10.842L13.7511 10.698L13.6131 10.563Z" fill="white"/>
<path d="M8.93742 3.25L8.78887 3.257C8.52196 3.28167 8.26459 3.37271 8.03833 3.52252C7.81206 3.67232 7.6235 3.87651 7.48842 4.118L6.29625 6.25H4.79167C4.09271 6.25 3.42238 6.53973 2.92815 7.05546C2.43391 7.57118 2.15625 8.27065 2.15625 9V18C2.15625 18.7293 2.43391 19.4288 2.92815 19.9445C3.42238 20.4603 4.09271 20.75 4.79167 20.75H18.2083C18.9073 20.75 19.5776 20.4603 20.0719 19.9445C20.5661 19.4288 20.8437 18.7293 20.8437 18V9L20.839 8.832C20.798 8.13302 20.503 7.47669 20.0141 6.99689C19.5253 6.51709 18.8794 6.24997 18.2083 6.25H16.698L15.4579 4.097C15.3085 3.83858 15.0977 3.62481 14.8458 3.47641C14.594 3.32802 14.3096 3.25003 14.0204 3.25H8.93742ZM8.93742 4.75H14.0204C14.1047 4.75 14.1833 4.796 14.2265 4.871L15.6755 7.387C15.7394 7.49783 15.8298 7.5895 15.9378 7.65311C16.0458 7.71672 16.1677 7.7501 16.2917 7.75H18.2083C18.8696 7.75 19.4062 8.31 19.4062 9V18C19.4062 18.69 18.8696 19.25 18.2083 19.25H4.79167C4.13042 19.25 3.59375 18.69 3.59375 18V9C3.59375 8.31 4.13042 7.75 4.79167 7.75H6.70833C6.83397 7.75004 6.95743 7.71571 7.06639 7.65044C7.17535 7.58517 7.26601 7.49123 7.32933 7.378L8.73042 4.874C8.75152 4.83626 8.78174 4.80494 8.81806 4.78319C8.85439 4.76143 8.89554 4.74999 8.93742 4.75Z" fill="white"/>
</svg>
