<svg width="23" height="24" viewBox="0 0 23 24" fill="none" xmlns="http://www.w3.org/2000/svg">
<path d="M6.24829 6.51954C6.36998 6.39252 6.53132 6.31529 6.70297 6.30189C6.87462 6.2885 7.04517 6.33982 7.18362 6.44654L7.26412 6.51954L16.7516 16.4195C16.879 16.5535 16.9533 16.7327 16.9597 16.9214C16.9661 17.11 16.904 17.2943 16.786 17.4373C16.6679 17.5803 16.5025 17.6716 16.3227 17.693C16.143 17.7143 15.9622 17.6642 15.8163 17.5525L15.7358 17.4795L6.24829 7.57954C6.11369 7.43891 6.03809 7.24829 6.03809 7.04954C6.03809 6.85079 6.11369 6.66016 6.24829 6.51954Z" fill="white"/>
<path d="M16.2437 9.12654C16.4174 9.12654 16.5852 9.19218 16.7161 9.3113C16.847 9.43043 16.9321 9.59498 16.9557 9.77454L16.9625 9.87654V16.9495C16.9624 17.1308 16.8995 17.3059 16.7854 17.4425C16.6712 17.5791 16.5135 17.6679 16.3415 17.6925L16.2437 17.6995L9.46637 17.6985C9.28426 17.6985 9.10897 17.6263 8.9759 17.4966C8.84284 17.3668 8.76192 17.1892 8.74951 16.9997C8.7371 16.8101 8.79411 16.6226 8.90903 16.4752C9.02396 16.3278 9.18821 16.2314 9.36862 16.2055L9.46637 16.1985L15.524 16.1995L15.525 9.87654C15.525 9.6953 15.5879 9.5202 15.702 9.38361C15.8162 9.24702 15.9739 9.15819 16.146 9.13354L16.2437 9.12654Z" fill="white"/>
</svg>
