<svg width="23" height="23" viewBox="0 0 23 23" fill="none" xmlns="http://www.w3.org/2000/svg">
<path d="M19.1665 2.15625L18.8426 2.16104C17.2951 2.20827 15.7764 2.59092 14.3913 3.28255C13.0063 3.97418 11.7879 4.95829 10.8203 6.16687L6.68322 11.3409C6.42556 11.6631 6.29572 12.069 6.31853 12.481C6.34133 12.8929 6.51519 13.282 6.80685 13.5738L9.42693 16.1939C9.71862 16.4857 10.1076 16.6597 10.5196 16.6827C10.9315 16.7057 11.3375 16.576 11.6598 16.3185L16.832 12.1804C18.0838 11.179 19.0943 9.90882 19.7888 8.46392C20.4832 7.01903 20.8437 5.43643 20.8436 3.83333L20.8359 3.68C20.7343 2.79642 20.0203 2.15625 19.1665 2.15625ZM18.8761 3.59854L19.1665 3.59375C19.225 3.5938 19.2815 3.61527 19.3253 3.65411C19.3691 3.69295 19.3971 3.74648 19.4041 3.80458L19.407 3.87454C19.4018 5.25524 19.0871 6.6172 18.486 7.86022C17.885 9.10325 17.013 10.1957 15.934 11.0572L10.7619 15.1944C10.7159 15.2313 10.6579 15.2499 10.599 15.2467C10.5401 15.2436 10.4845 15.2188 10.4428 15.1771L7.82268 12.557C7.78104 12.5153 7.75625 12.4597 7.75307 12.4008C7.74989 12.3419 7.76853 12.2839 7.80543 12.2379L11.9426 7.06579C12.7786 6.02069 13.8316 5.16947 15.0286 4.57085C16.2257 3.97224 17.5384 3.64051 18.8761 3.59854Z" fill="white"/>
<path d="M15.3331 11.7396C15.5068 11.7396 15.6746 11.8025 15.8055 11.9167C15.9364 12.0308 16.0216 12.1885 16.0452 12.3606L16.0519 12.4583V16.6577C16.0518 16.9445 15.9781 17.2263 15.8381 17.4765C15.698 17.7267 15.4961 17.9367 15.2517 18.0866L15.1252 18.1575L12.8098 19.3152C12.4121 19.5142 11.9515 19.547 11.5296 19.4065C11.1076 19.266 10.7587 18.9636 10.5597 18.5658L10.5098 18.4575L10.4686 18.3454L9.85914 16.5188C9.79976 16.3455 9.8088 16.156 9.88441 15.9892C9.96002 15.8223 10.0965 15.6906 10.266 15.621C10.4354 15.5514 10.6251 15.5491 10.7961 15.6146C10.9672 15.6801 11.1068 15.8085 11.1864 15.9735L11.2238 16.0645L11.8323 17.8911L11.8448 17.9227C11.8683 17.9696 11.9066 18.0074 11.9536 18.0304C12.0007 18.0534 12.0541 18.0604 12.1055 18.0502L12.1668 18.0301L14.4821 16.8724C14.5138 16.8566 14.5416 16.8339 14.5635 16.8061C14.5853 16.7783 14.6008 16.7459 14.6086 16.7114L14.6144 16.6577V12.4583C14.6144 12.2677 14.6901 12.0849 14.8249 11.9501C14.9597 11.8153 15.1425 11.7396 15.3331 11.7396Z" fill="white"/>
<path d="M10.5415 6.94792C10.7236 6.94797 10.8989 7.01715 11.0319 7.14147C11.165 7.2658 11.2459 7.43599 11.2583 7.61768C11.2707 7.79936 11.2137 7.97898 11.0988 8.12024C10.9839 8.26151 10.8196 8.35389 10.6392 8.37871L10.5415 8.38542H6.34205C6.3067 8.38541 6.27178 8.39322 6.2398 8.4083C6.20783 8.42337 6.17958 8.44534 6.1571 8.47262L6.12835 8.51767L4.96972 10.833L4.95726 10.8646C4.94061 10.9144 4.94078 10.9683 4.95775 11.018C4.97472 11.0677 5.00755 11.1104 5.05118 11.1397L5.10868 11.1684L6.93526 11.776C7.11034 11.8318 7.25741 11.9525 7.34626 12.1133C7.4351 12.2742 7.45897 12.4629 7.41297 12.6408C7.36696 12.8187 7.25457 12.9722 7.09889 13.0698C6.9432 13.1674 6.75605 13.2017 6.57589 13.1656L6.48005 13.1397L4.65443 12.5312C4.44543 12.4615 4.2522 12.3514 4.08577 12.2071C3.91933 12.0628 3.78297 11.8871 3.68445 11.6901C3.58593 11.493 3.5272 11.2785 3.5116 11.0588C3.49601 10.839 3.52385 10.6184 3.59355 10.4094L3.63476 10.2983L3.6846 10.19L4.84226 7.87462C4.97056 7.61835 5.16239 7.39923 5.39944 7.23817C5.6365 7.07712 5.91088 6.97949 6.19639 6.95462L6.34205 6.94792H10.5415Z" fill="white"/>
<path d="M4.8183 15.1244L4.63143 15.1599C4.10261 15.2793 3.62205 15.5553 3.25246 15.9519C2.88286 16.3485 2.64137 16.8473 2.55951 17.3832L2.16372 20.0186C2.14703 20.1298 2.15667 20.2434 2.19185 20.3502C2.22703 20.457 2.28677 20.554 2.36628 20.6335C2.44579 20.713 2.54284 20.7728 2.64963 20.808C2.75643 20.8431 2.86998 20.8528 2.98118 20.8361L5.6166 20.4393C6.18508 20.3541 6.71125 20.0888 7.11781 19.6824C7.52437 19.276 7.7899 18.75 7.87539 18.1815L7.89935 17.9515C7.92467 17.5513 7.86013 17.1506 7.71045 16.7786C7.56077 16.4066 7.32974 16.0729 7.03431 15.8018C6.73887 15.5307 6.38652 15.3292 6.00307 15.212C5.61963 15.0948 5.21481 15.0648 4.8183 15.1244ZM5.06076 16.5408C5.7153 16.4431 6.35164 16.9136 6.45418 17.596C6.46664 17.6784 6.47047 17.7608 6.46664 17.8442L6.44939 18.0033L6.42543 18.1182C6.3066 18.5744 5.90505 18.9424 5.40385 19.0191L3.72964 19.2692L3.98168 17.596C4.05835 17.09 4.43497 16.6817 4.93139 16.5648L5.06076 16.5408Z" fill="white"/>
</svg>
