<svg width="23" height="23" viewBox="0 0 23 23" fill="none" xmlns="http://www.w3.org/2000/svg">
<path d="M14.8836 18.1794C14.9504 18.2462 15.0033 18.3254 15.0395 18.4127C15.0756 18.4999 15.0942 18.5935 15.0942 18.6879C15.0942 18.7823 15.0756 18.8759 15.0395 18.9631C15.0033 19.0504 14.9504 19.1296 14.8836 19.1964C14.8168 19.2632 14.7375 19.3162 14.6503 19.3523C14.563 19.3884 14.4695 19.4071 14.3751 19.4071C14.2806 19.4071 14.1871 19.3884 14.0999 19.3523C14.0126 19.3162 13.9333 19.2632 13.8666 19.1964L6.67906 12.0089C6.61223 11.9422 6.55922 11.8629 6.52305 11.7756C6.48688 11.6884 6.46826 11.5949 6.46826 11.5004C6.46826 11.4059 6.48688 11.3124 6.52305 11.2252C6.55922 11.1379 6.61223 11.0586 6.67906 10.9919L13.8666 3.80438C14.0014 3.66952 14.1843 3.59375 14.3751 3.59375C14.5658 3.59375 14.7487 3.66952 14.8836 3.80438C15.0185 3.93925 15.0942 4.12217 15.0942 4.3129C15.0942 4.50363 15.0185 4.68655 14.8836 4.82142L8.20371 11.5004L14.8836 18.1794Z" fill="white"/>
</svg>
