<svg width="23" height="24" viewBox="0 0 23 24" fill="none" xmlns="http://www.w3.org/2000/svg">
<path d="M10.9922 9.46973C11.1138 9.34272 11.2752 9.26549 11.4468 9.25209C11.6185 9.23869 11.789 9.29002 11.9275 9.39673L12.008 9.46973L15.8413 13.4697C15.9687 13.6037 16.043 13.7829 16.0494 13.9716C16.0558 14.1602 15.9937 14.3445 15.8757 14.4875C15.7576 14.6305 15.5922 14.7218 15.4124 14.7432C15.2327 14.7645 15.0519 14.7144 14.906 14.6027L14.8255 14.5297L11.5001 11.0607L8.17465 14.5307C8.05283 14.6576 7.89143 14.7346 7.71979 14.7479C7.54815 14.7611 7.37766 14.7096 7.23932 14.6027L7.15882 14.5297C7.03709 14.4027 6.96308 14.2344 6.95025 14.0553C6.93741 13.8762 6.98659 13.6982 7.08886 13.5537L7.15882 13.4697L10.9922 9.46973Z" fill="white"/>
</svg>
