<svg width="23" height="24" viewBox="0 0 23 24" fill="none" xmlns="http://www.w3.org/2000/svg">
<path d="M16.0758 8.109L7.87249 16.669C7.61588 16.9368 7.44943 17.2841 7.39811 17.659L6.95536 20.894C6.93983 21.008 6.94965 21.1242 6.98409 21.2336C7.01852 21.343 7.07663 21.4427 7.15392 21.5249C7.2312 21.6071 7.32559 21.6696 7.42976 21.7076C7.53393 21.7456 7.64509 21.758 7.75461 21.744L10.7734 21.355C11.1442 21.3076 11.4892 21.1323 11.7537 20.857L20.0251 12.23C20.5208 11.7126 20.812 11.0196 20.8407 10.2886C20.8695 9.55761 20.6338 8.84206 20.1804 8.284L20.0462 8.131C19.7875 7.85638 19.4793 7.63786 19.1394 7.48803C18.7994 7.3382 18.4344 7.26001 18.0654 7.25796C17.6964 7.25592 17.3306 7.33006 16.9891 7.47612C16.6477 7.62217 16.3373 7.83726 16.0758 8.109ZM19.0083 9.169L19.1042 9.278C19.5392 9.813 19.5086 10.648 19.0083 11.17L10.7379 19.796L10.6967 19.83C10.6668 19.8498 10.6331 19.8624 10.598 19.867L8.51074 20.135L8.82028 17.871C8.82757 17.8172 8.85146 17.7674 8.88832 17.729L17.0917 9.169C17.3459 8.90398 17.6906 8.75511 18.05 8.75511C18.4094 8.75511 18.7541 8.90398 19.0083 9.169Z" fill="white"/>
<path d="M15.3331 3.25C15.5152 3.25006 15.6905 3.32224 15.8236 3.45197C15.9566 3.5817 16.0376 3.7593 16.05 3.94888C16.0624 4.13846 16.0054 4.32589 15.8904 4.4733C15.7755 4.62071 15.6113 4.7171 15.4309 4.743L15.3331 4.75H2.87478C2.69268 4.74994 2.51738 4.67776 2.38431 4.54803C2.25125 4.4183 2.17033 4.2407 2.15792 4.05112C2.14551 3.86154 2.20252 3.67411 2.31745 3.5267C2.43237 3.37929 2.59662 3.2829 2.77703 3.257L2.87478 3.25H15.3331Z" fill="white"/>
<path d="M11.4998 7.25C11.6819 7.25006 11.8572 7.32224 11.9902 7.45197C12.1233 7.5817 12.2042 7.7593 12.2166 7.94888C12.2291 8.13846 12.172 8.32589 12.0571 8.4733C11.9422 8.62071 11.7779 8.7171 11.5975 8.743L11.4998 8.75H2.87478C2.69268 8.74994 2.51738 8.67776 2.38431 8.54803C2.25125 8.4183 2.17033 8.2407 2.15792 8.05112C2.14551 7.86154 2.20252 7.67411 2.31745 7.5267C2.43237 7.37929 2.59662 7.2829 2.77703 7.257L2.87478 7.25H11.4998Z" fill="white"/>
<path d="M7.66645 11.25C7.84855 11.2501 8.02385 11.3222 8.15691 11.452C8.28998 11.5817 8.37089 11.7593 8.38331 11.9489C8.39572 12.1385 8.3387 12.3259 8.22378 12.4733C8.10886 12.6207 7.9446 12.7171 7.7642 12.743L7.66645 12.75H2.87478C2.69268 12.7499 2.51738 12.6778 2.38431 12.548C2.25125 12.4183 2.17033 12.2407 2.15792 12.0511C2.14551 11.8615 2.20252 11.6741 2.31745 11.5267C2.43237 11.3793 2.59662 11.2829 2.77703 11.257L2.87478 11.25H7.66645Z" fill="white"/>
</svg>
