<svg width="23" height="24" viewBox="0 0 23 24" fill="none" xmlns="http://www.w3.org/2000/svg">
<path d="M7.66674 21.75H15.3334C16.7949 21.75 18.1965 21.1442 19.2299 20.0659C20.2633 18.9875 20.8438 17.525 20.8438 16V8C20.8438 6.47501 20.2633 5.01247 19.2299 3.93414C18.1965 2.8558 16.7949 2.25 15.3334 2.25H7.66674C6.20528 2.25 4.80369 2.8558 3.77028 3.93414C2.73688 5.01247 2.15632 6.47501 2.15632 8V16C2.15632 17.525 2.73688 18.9875 3.77028 20.0659C4.80369 21.1442 6.20528 21.75 7.66674 21.75ZM15.3334 20.25H7.66674C6.58653 20.25 5.55057 19.8022 4.78675 19.0052C4.02293 18.2082 3.59382 17.1272 3.59382 16V8C3.59382 6.87283 4.02293 5.79183 4.78675 4.9948C5.55057 4.19777 6.58653 3.75 7.66674 3.75H15.3334C16.4136 3.75 17.4496 4.19777 18.2134 4.9948C18.9772 5.79183 19.4063 6.87283 19.4063 8V16C19.4063 17.1272 18.9772 18.2082 18.2134 19.0052C17.4496 19.8022 16.4136 20.25 15.3334 20.25Z" fill="white"/>
<path d="M13.8959 10.25C14.285 10.25 14.6607 10.391 14.9597 10.646L15.0823 10.763L20.54 16.458C20.6703 16.5914 20.747 16.7716 20.7546 16.9619C20.7622 17.1522 20.7001 17.3384 20.581 17.4827C20.4619 17.627 20.2946 17.7186 20.1131 17.7389C19.9316 17.7592 19.7495 17.7067 19.6037 17.592L19.5232 17.519L14.0655 11.823C14.0283 11.784 13.9797 11.7589 13.9273 11.7517C13.875 11.7445 13.8218 11.7555 13.7761 11.783L13.7263 11.823L9.61215 16.116C9.49046 16.243 9.32912 16.3202 9.15747 16.3336C8.98582 16.347 8.81527 16.2957 8.67682 16.189L8.59632 16.116L6.39886 13.823C6.36172 13.7845 6.3135 13.7597 6.26157 13.7524C6.20965 13.7452 6.15688 13.756 6.11136 13.783L6.05961 13.823L3.3849 16.614C3.25682 16.7485 3.08464 16.8274 2.90304 16.8348C2.72143 16.8422 2.54389 16.7776 2.40614 16.6539C2.26839 16.5302 2.18067 16.3566 2.16063 16.1681C2.1406 15.9796 2.18973 15.7902 2.29815 15.638L2.36811 15.553L5.04378 12.763C5.33845 12.4553 5.73236 12.2732 6.14872 12.2522C6.56508 12.2311 6.97403 12.3726 7.29586 12.649L7.4147 12.763L9.10424 14.524L12.7104 10.762C12.9844 10.4762 13.3446 10.2981 13.7301 10.258L13.8959 10.249V10.25Z" fill="white"/>
<path d="M8.51774 7.71C8.71127 7.55555 8.95392 7.48382 9.19632 7.5094C9.43873 7.53498 9.66271 7.65594 9.82269 7.84769C9.98268 8.03944 10.0667 8.28757 10.0576 8.54163C10.0485 8.7957 9.94701 9.03661 9.77376 9.21537C9.60052 9.39414 9.36853 9.49734 9.12496 9.50399C8.8814 9.51063 8.64456 9.42022 8.4626 9.25115C8.28064 9.08207 8.16723 8.84703 8.14543 8.59381C8.12362 8.34059 8.19507 8.08821 8.34524 7.888L8.42669 7.792L8.51774 7.71Z" fill="white"/>
</svg>
