<svg width="23" height="23" viewBox="0 0 23 23" fill="none" xmlns="http://www.w3.org/2000/svg">
<path d="M19.0785 16.5312H15.9026C15.1805 16.5328 14.4885 16.8201 13.9777 17.3305C13.467 17.8409 13.1791 18.5328 13.1771 19.2548V19.6458C13.1771 20.3071 13.7138 20.8437 14.375 20.8437H20.6042C21.2654 20.8437 21.8021 20.3071 21.8021 19.6458V19.2567C21.8006 18.5347 21.5132 17.8426 21.0028 17.3319C20.4924 16.8211 19.8005 16.5333 19.0785 16.5312ZM19.0747 17.9687L19.1993 17.9745C19.518 18.0063 19.8136 18.1552 20.0289 18.3924C20.2442 18.6297 20.3638 18.9383 20.3646 19.2587V19.4062H14.6146V19.2567C14.6161 18.9153 14.7525 18.5883 14.9942 18.347C15.2358 18.1057 15.563 17.9698 15.9045 17.9687H19.0747Z" fill="white"/>
<path d="M17.4934 10.3021C16.8076 10.3002 16.1481 10.5658 15.6549 11.0424C15.1617 11.519 14.8738 12.1691 14.8522 12.8546C14.8306 13.54 15.0771 14.2069 15.5393 14.7136C16.0015 15.2203 16.643 15.5268 17.3276 15.5681L17.4973 15.5729C18.1962 15.5724 18.8663 15.2943 19.3602 14.7997C19.8541 14.3051 20.1313 13.6345 20.1308 12.9356C20.1302 12.2366 19.8521 11.5665 19.3575 11.0726C18.8629 10.5787 18.1924 10.3016 17.4934 10.3021ZM17.4934 11.7396C17.7996 11.7413 18.0935 11.8601 18.3148 12.0718C18.536 12.2834 18.6679 12.5717 18.6832 12.8775C18.6985 13.1833 18.5962 13.4833 18.3972 13.716C18.1982 13.9487 17.9177 14.0964 17.6132 14.1287L17.4896 14.1354C17.1719 14.1349 16.8674 14.0082 16.6431 13.7832C16.4188 13.5582 16.2931 13.2533 16.2936 12.9356C16.2941 12.6179 16.4208 12.3134 16.6458 12.0891C16.8708 11.8648 17.1757 11.7391 17.4934 11.7396Z" fill="white"/>
<path d="M8.64513 14.6203C8.81746 14.6419 8.97618 14.7251 9.09193 14.8545C9.20767 14.984 9.27262 15.151 9.27475 15.3247L9.269 15.4225L8.78983 19.2558C8.76699 19.4363 8.67654 19.6015 8.53671 19.7179C8.39688 19.8343 8.21809 19.8934 8.03642 19.8832C7.85475 19.873 7.68371 19.7942 7.55781 19.6629C7.43192 19.5315 7.36054 19.3572 7.35808 19.1753L7.36383 19.0775L7.843 15.2442C7.86452 15.0719 7.94772 14.9132 8.07721 14.7974C8.20669 14.6817 8.37371 14.6167 8.54737 14.6146L8.64513 14.6203Z" fill="white"/>
<path d="M17.25 2.15625C18.0279 2.15623 18.7763 2.45386 19.3417 2.9881C19.9072 3.52234 20.2467 4.25269 20.2908 5.02933L20.2956 5.20183V8.625C20.2955 8.80711 20.2263 8.9824 20.102 9.11547C19.9777 9.24853 19.8075 9.32945 19.6258 9.34186C19.4441 9.35427 19.2645 9.29726 19.1233 9.18234C18.982 9.06741 18.8896 8.90316 18.8648 8.72275L18.8581 8.625V5.20183C18.8581 4.36042 18.2122 3.67042 17.389 3.5995L17.25 3.59375H5.20183C4.36042 3.59375 3.67042 4.23967 3.5995 5.06287L3.59375 5.20183V13.0065C3.59375 13.8479 4.23967 14.5379 5.06288 14.6088L5.20183 14.6146H12.4583C12.6404 14.6146 12.8157 14.6838 12.9488 14.8081C13.0819 14.9325 13.1628 15.1027 13.1752 15.2843C13.1876 15.466 13.1306 15.6456 13.0157 15.7869C12.9007 15.9282 12.7365 16.0206 12.5561 16.0454L12.4583 16.0521H5.20183C4.42394 16.0521 3.67552 15.7545 3.1101 15.2202C2.54467 14.686 2.2051 13.9556 2.16104 13.179L2.15625 13.0065V5.20183C2.15623 4.42394 2.45386 3.67552 2.9881 3.1101C3.52234 2.54467 4.25269 2.2051 5.02933 2.16104L5.20183 2.15625H17.25Z" fill="white"/>
<path d="M10.5417 18.4479C10.7238 18.448 10.8991 18.5172 11.0321 18.6415C11.1652 18.7658 11.2461 18.936 11.2585 19.1177C11.2709 19.2994 11.2139 19.479 11.099 19.6202C10.9841 19.7615 10.8198 19.8539 10.6394 19.8787L10.5417 19.8854H6.63933C6.45723 19.8854 6.28193 19.8162 6.14887 19.6919C6.0158 19.5675 5.93489 19.3973 5.92248 19.2157C5.91006 19.034 5.96708 18.8544 6.082 18.7131C6.19692 18.5718 6.36118 18.4794 6.54158 18.4546L6.63933 18.4479H10.5417Z" fill="white"/>
<path d="M10.3644 6.17646C10.4131 6.06692 10.4883 5.97129 10.5834 5.89828C10.6785 5.82527 10.7903 5.7772 10.9087 5.75844C11.0271 5.73967 11.1483 5.75082 11.2613 5.79085C11.3742 5.83089 11.4754 5.89855 11.5556 5.98767L11.6188 6.07008L12.8436 7.90625H14.375C14.5487 7.90626 14.7165 7.96916 14.8474 8.08332C14.9783 8.19748 15.0634 8.35518 15.087 8.52725L15.0938 8.625C15.0937 8.79869 15.0308 8.96649 14.9167 9.09739C14.8025 9.22829 14.6448 9.31342 14.4728 9.33704L14.375 9.34375H12.4583C12.3572 9.34375 12.2572 9.32241 12.1649 9.28112C12.0726 9.23984 11.99 9.17954 11.9226 9.10417L11.8603 9.02367L11.1464 7.95417L9.76063 11.0735C9.71195 11.1831 9.63665 11.2787 9.54158 11.3517C9.44652 11.4247 9.3347 11.4728 9.21631 11.4916C9.09792 11.5103 8.97672 11.4992 8.86374 11.4591C8.75075 11.4191 8.64958 11.3515 8.56942 11.2623L8.50617 11.1799L7.28142 9.34375H5.75C5.57631 9.34374 5.40851 9.28084 5.27761 9.16668C5.14671 9.05252 5.06158 8.89482 5.03796 8.72275L5.03125 8.625C5.03126 8.45131 5.09416 8.28351 5.20832 8.15261C5.32248 8.02171 5.48018 7.93658 5.65225 7.91296L5.75 7.90625H7.66667C7.76779 7.90625 7.86777 7.92759 7.96009 7.96888C8.0524 8.01016 8.13496 8.07046 8.20238 8.14583L8.26467 8.22633L8.97767 9.29488L10.3644 6.17646Z" fill="white"/>
</svg>
