<svg width="23" height="24" viewBox="0 0 23 24" fill="none" xmlns="http://www.w3.org/2000/svg">
<path d="M15.7357 6.52C15.8641 6.38704 16.0359 6.3095 16.2167 6.30286C16.3975 6.29622 16.574 6.36096 16.7111 6.48416C16.8481 6.60736 16.9356 6.77996 16.9561 6.96752C16.9766 7.15508 16.9285 7.34379 16.8215 7.496L16.7516 7.58L7.26406 17.48C7.13564 17.613 6.9639 17.6905 6.78311 17.6971C6.60232 17.7038 6.42578 17.639 6.28871 17.5158C6.15165 17.3926 6.06415 17.22 6.04368 17.0325C6.02321 16.8449 6.07127 16.6562 6.17827 16.504L6.24823 16.42L15.7357 6.52Z" fill="white"/>
<path d="M9.58802 6.25L16.2484 6.299C16.4207 6.30007 16.5869 6.36569 16.7167 6.48389C16.8465 6.60209 16.9313 6.76502 16.9557 6.943L16.9624 7.043L17.0103 13.995C17.011 14.1847 16.9428 14.3676 16.8194 14.5069C16.696 14.6461 16.5266 14.7315 16.3454 14.7457C16.1641 14.7599 15.9844 14.7019 15.8425 14.5834C15.7006 14.4649 15.6069 14.2947 15.5805 14.107L15.5728 14.005L15.5297 7.793L9.57843 7.75C9.40469 7.74886 9.23722 7.68209 9.10701 7.56204C8.97681 7.44199 8.89269 7.27678 8.87023 7.097L8.86448 6.995C8.86557 6.8137 8.92956 6.63895 9.04461 6.50308C9.15966 6.36722 9.31798 6.27945 9.49027 6.256L9.58802 6.25Z" fill="white"/>
</svg>
