<svg width="23" height="23" viewBox="0 0 23 23" fill="none" xmlns="http://www.w3.org/2000/svg">
<path d="M6.6852 2.36573C6.80714 2.24429 6.96861 2.17063 7.14025 2.15815C7.31189 2.14566 7.48231 2.19517 7.62054 2.29768L7.70104 2.36764L16.3212 11.0185C16.4427 11.1405 16.5163 11.3019 16.5288 11.4736C16.5413 11.6452 16.4918 11.8156 16.3893 11.9539L16.3193 12.0344L7.69433 20.6335C7.56561 20.7603 7.39385 20.8339 7.21325 20.8398C7.03266 20.8457 6.85649 20.7833 6.71982 20.6651C6.58314 20.5469 6.496 20.3816 6.47573 20.202C6.45546 20.0225 6.50356 19.8419 6.61045 19.6962L6.67945 19.6157L14.7956 11.5236L6.68329 3.38156C6.56185 3.25962 6.48819 3.09816 6.47571 2.92652C6.46322 2.75488 6.51273 2.58446 6.61525 2.44623L6.6852 2.36573Z" fill="white"/>
</svg>
