<svg width="23" height="24" viewBox="0 0 23 24" fill="none" xmlns="http://www.w3.org/2000/svg">
<path d="M16.2917 2.25H6.70833C5.50105 2.25 4.34321 2.75044 3.48952 3.64124C2.63584 4.53204 2.15625 5.74022 2.15625 7V17C2.15625 18.2598 2.63584 19.468 3.48952 20.3588C4.34321 21.2496 5.50105 21.75 6.70833 21.75H16.2917C17.499 21.75 18.6568 21.2496 19.5105 20.3588C20.3642 19.468 20.8438 18.2598 20.8438 17V7C20.8438 5.74022 20.3642 4.53204 19.5105 3.64124C18.6568 2.75044 17.499 2.25 16.2917 2.25ZM6.70833 3.75H16.2917C17.1177 3.75 17.9099 4.09241 18.494 4.7019C19.0781 5.3114 19.4063 6.13805 19.4063 7V17C19.4063 17.862 19.0781 18.6886 18.494 19.2981C17.9099 19.9076 17.1177 20.25 16.2917 20.25H6.70833C5.88229 20.25 5.09009 19.9076 4.50599 19.2981C3.92189 18.6886 3.59375 17.862 3.59375 17V7C3.59375 6.13805 3.92189 5.3114 4.50599 4.7019C5.09009 4.09241 5.88229 3.75 6.70833 3.75Z" fill="white"/>
<path d="M19.7072 8.39C19.8548 8.27954 20.0371 8.23152 20.2173 8.2556C20.3975 8.27967 20.5622 8.37406 20.6784 8.51978C20.7947 8.66549 20.8537 8.85172 20.8436 9.041C20.8336 9.23028 20.7552 9.40857 20.6243 9.54L20.5428 9.61L13.8345 14.61C13.7121 14.7013 13.5654 14.7502 13.4149 14.7498C13.2645 14.7495 13.1179 14.6999 12.996 14.608L12.9088 14.53L9.50475 10.98L3.29283 15.61C3.1527 15.7144 2.98129 15.7629 2.80981 15.7465C2.63833 15.7302 2.47816 15.6502 2.35846 15.521L2.29042 15.436C2.19035 15.2898 2.14392 15.1109 2.15957 14.932C2.17522 14.753 2.25192 14.5859 2.37571 14.461L2.45717 14.39L9.1655 9.39C9.28789 9.29872 9.43464 9.24981 9.58508 9.25017C9.73552 9.25053 9.88205 9.30014 10.004 9.392L10.0913 9.47L13.4943 13.02L19.7072 8.39Z" fill="white"/>
</svg>
