<svg width="23" height="24" viewBox="0 0 23 24" fill="none" xmlns="http://www.w3.org/2000/svg">
<path fill-rule="evenodd" clip-rule="evenodd" d="M11.5005 2.25C11.7212 2.25 11.9405 2.29554 12.1444 2.38379C12.3481 2.47204 12.5332 2.60171 12.689 2.76465L14.3699 4.51953C14.3924 4.54295 14.4191 4.56153 14.4485 4.57422C14.4778 4.58686 14.5094 4.59372 14.5411 4.59375H16.9201C17.8478 4.59375 18.6 5.37868 18.6 6.34668V8.82812C18.6 8.86128 18.6066 8.89415 18.6187 8.9248C18.6309 8.95544 18.6487 8.98336 18.6711 9.00684L20.3529 10.7627C20.5088 10.9253 20.6326 11.1186 20.717 11.3311C20.8013 11.5435 20.8451 11.7711 20.8452 12.001C20.8452 12.2311 20.8014 12.4593 20.717 12.6719C20.6326 12.8844 20.5088 13.0776 20.3529 13.2402L18.6711 14.9951C18.6262 15.043 18.6001 15.107 18.6 15.1738V17.6562C18.6 18.6242 17.8478 19.4092 16.9201 19.4092H14.5411C14.5094 19.4092 14.4778 19.4161 14.4485 19.4287C14.4192 19.4414 14.3923 19.46 14.3699 19.4834L12.6881 21.2383C12.5322 21.401 12.3471 21.5301 12.1434 21.6182C11.9397 21.7062 11.721 21.752 11.5005 21.752C11.2802 21.7519 11.062 21.7061 10.8585 21.6182C10.6548 21.5301 10.4697 21.4009 10.3138 21.2383L8.6283 19.4805C8.58326 19.4335 8.52307 19.4072 8.4589 19.4072H6.08179C5.15412 19.4072 4.4019 18.6223 4.4019 17.6543V15.1719C4.40187 15.1388 4.3953 15.1058 4.38318 15.0752C4.37102 15.0446 4.35321 15.0166 4.33077 14.9932L2.64901 13.2383C2.4931 13.0756 2.36935 12.8824 2.28495 12.6699C2.20055 12.4573 2.15674 12.2291 2.15674 11.999C2.15677 11.7691 2.20063 11.5416 2.28495 11.3291C2.36935 11.1165 2.49307 10.9234 2.64901 10.7607L4.34762 8.9873C4.38206 8.95137 4.40183 8.90247 4.4019 8.85156V6.34668C4.4019 5.37868 5.15412 4.59375 6.08179 4.59375H8.45984C8.49158 4.59378 8.52315 4.58683 8.55249 4.57422C8.58178 4.56158 8.60864 4.54286 8.6311 4.51953L10.3138 2.76465C10.4697 2.60164 10.6537 2.47203 10.8575 2.38379C11.0614 2.29558 11.2798 2.25004 11.5005 2.25ZM11.4996 3.75C11.4678 3.75 11.4362 3.75685 11.4069 3.76953C11.3776 3.78224 11.3507 3.80075 11.3283 3.82422L11.2993 3.85352L11.4996 3.75Z" fill="#32BD65"/>
<path d="M13.8672 9.96956C13.9956 9.8366 14.1674 9.75906 14.3482 9.75242C14.529 9.74577 14.7055 9.81051 14.8426 9.93372C14.9796 10.0569 15.0671 10.2295 15.0876 10.4171C15.1081 10.6046 15.06 10.7933 14.953 10.9456L14.8831 11.0296L11.2893 14.7796C11.1676 14.9066 11.0063 14.9838 10.8346 14.9972C10.663 15.0106 10.4924 14.9593 10.354 14.8526L10.2735 14.7796L8.11723 12.5296C7.98981 12.3956 7.9155 12.2163 7.90914 12.0277C7.90277 11.839 7.96481 11.6548 8.08288 11.5118C8.20095 11.3688 8.36636 11.2775 8.5461 11.2561C8.72584 11.2348 8.90669 11.2849 9.05256 11.3966L9.13306 11.4696L10.7814 13.1886L13.8672 9.96956Z" fill="white"/>
</svg>
