<svg width="23" height="24" viewBox="0 0 23 24" fill="none" xmlns="http://www.w3.org/2000/svg">
<path d="M16.076 3.10889L8.83105 10.6689C8.57444 10.9366 8.40799 11.284 8.35667 11.6589L7.91392 14.8939C7.89838 15.0079 7.90821 15.1241 7.94264 15.2335C7.97708 15.3429 8.03519 15.4426 8.11247 15.5248C8.18976 15.6069 8.28414 15.6695 8.38831 15.7075C8.49248 15.7455 8.60364 15.7579 8.71317 15.7439L11.7319 15.3549C12.1027 15.3075 12.4478 15.1322 12.7123 14.8569L20.0253 7.23089C20.5213 6.71344 20.8126 6.02025 20.8414 5.28902C20.8702 4.55778 20.6343 3.84201 20.1806 3.28389L20.0464 3.13089C19.7877 2.85627 19.4795 2.63775 19.1396 2.48792C18.7996 2.33809 18.4346 2.2599 18.0656 2.25785C17.6966 2.25581 17.3308 2.32995 16.9894 2.47601C16.6479 2.62206 16.3375 2.83715 16.076 3.10889ZM19.0085 4.16889L19.1044 4.27789C19.5395 4.81289 19.5088 5.64789 19.0085 6.16989L11.6965 13.7959L11.6553 13.8299C11.6254 13.8497 11.5917 13.8623 11.5565 13.8669L9.4693 14.1349L9.77884 11.8709C9.78613 11.8171 9.81002 11.7673 9.84688 11.7289L17.0919 4.16889C17.3461 3.90387 17.6908 3.755 18.0502 3.755C18.4096 3.755 18.7543 3.90387 19.0085 4.16889Z" fill="white"/>
<path d="M11.0208 3.24989C11.2115 3.24989 11.3943 3.32891 11.5291 3.46956C11.6639 3.61021 11.7396 3.80098 11.7396 3.99989C11.7396 4.1988 11.6639 4.38957 11.5291 4.53022C11.3943 4.67087 11.2115 4.74989 11.0208 4.74989C9.5519 4.74989 8.11595 5.20442 6.89457 6.056C5.67319 6.90758 4.72125 8.11797 4.15911 9.53409C3.59697 10.9502 3.44989 12.5085 3.73646 14.0118C4.02304 15.5152 4.7304 16.8961 5.7691 17.98C6.80779 19.0638 8.13117 19.8019 9.57189 20.101C11.0126 20.4 12.5059 20.2465 13.8631 19.66C15.2202 19.0734 16.3801 18.08 17.1962 16.8056C18.0123 15.5311 18.4479 14.0327 18.4479 12.4999C18.4479 12.301 18.5236 12.1102 18.6584 11.9696C18.7932 11.8289 18.976 11.7499 19.1667 11.7499C19.3573 11.7499 19.5401 11.8289 19.6749 11.9696C19.8097 12.1102 19.8854 12.301 19.8854 12.4999C19.8854 14.3294 19.3655 16.1178 18.3915 17.6389C17.4174 19.1601 16.033 20.3457 14.4132 21.0458C12.7934 21.7459 11.011 21.9291 9.29144 21.5722C7.57188 21.2152 5.99236 20.3343 4.75263 19.0406C3.5129 17.747 2.66863 16.0988 2.32658 14.3045C1.98454 12.5102 2.16009 10.6503 2.83103 8.96007C3.50197 7.26985 4.63817 5.8252 6.09594 4.8088C7.55371 3.79239 9.26759 3.24989 11.0208 3.24989Z" fill="white"/>
<path d="M14.3175 4.93989C14.4392 4.81287 14.6005 4.73564 14.7722 4.72225C14.9438 4.70885 15.1144 4.76018 15.2528 4.86689L15.3333 4.93989L18.2658 7.99989C18.3933 8.13389 18.4676 8.3131 18.4739 8.50175C18.4803 8.6904 18.4183 8.87462 18.3002 9.01764C18.1821 9.16066 18.0167 9.25196 17.837 9.27333C17.6572 9.29469 17.4764 9.24454 17.3305 9.13289L17.25 9.05989L14.3175 5.99989C14.1829 5.85926 14.1073 5.66864 14.1073 5.46989C14.1073 5.27114 14.1829 5.08052 14.3175 4.93989Z" fill="white"/>
</svg>
