<svg width="23" height="24" viewBox="0 0 23 24" fill="none" xmlns="http://www.w3.org/2000/svg">
<path d="M17.2502 10.75C17.5679 10.75 17.8726 10.8817 18.0972 11.1161C18.3219 11.3505 18.4481 11.6685 18.4481 12C18.4481 12.3315 18.3219 12.6495 18.0972 12.8839C17.8726 13.1183 17.5679 13.25 17.2502 13.25C16.9325 13.25 16.6278 13.1183 16.4031 12.8839C16.1785 12.6495 16.0522 12.3315 16.0522 12C16.0522 11.6685 16.1785 11.3505 16.4031 11.1161C16.6278 10.8817 16.9325 10.75 17.2502 10.75Z" fill="white"/>
<path d="M11.5002 10.75C11.8179 10.75 12.1226 10.8817 12.3472 11.1161C12.5719 11.3505 12.6981 11.6685 12.6981 12C12.6981 12.3315 12.5719 12.6495 12.3472 12.8839C12.1226 13.1183 11.8179 13.25 11.5002 13.25C11.1825 13.25 10.8778 13.1183 10.6531 12.8839C10.4285 12.6495 10.3022 12.3315 10.3022 12C10.3022 11.6685 10.4285 11.3505 10.6531 11.1161C10.8778 10.8817 11.1825 10.75 11.5002 10.75Z" fill="white"/>
<path d="M5.75016 10.75C6.06787 10.75 6.37256 10.8817 6.59722 11.1161C6.82187 11.3505 6.94808 11.6685 6.94808 12C6.94808 12.3315 6.82187 12.6495 6.59722 12.8839C6.37256 13.1183 6.06787 13.25 5.75016 13.25C5.43246 13.25 5.12776 13.1183 4.90311 12.8839C4.67845 12.6495 4.55225 12.3315 4.55225 12C4.55225 11.6685 4.67845 11.3505 4.90311 11.1161C5.12776 10.8817 5.43246 10.75 5.75016 10.75Z" fill="white"/>
</svg>
