<svg width="23" height="24" viewBox="0 0 23 24" fill="none" xmlns="http://www.w3.org/2000/svg">
<path d="M9.58317 1.25H6.229C5.65713 1.25 5.10868 1.48705 4.70431 1.90901C4.29993 2.33097 4.07275 2.90326 4.07275 3.5V16.5C4.07275 17.0967 4.29993 17.669 4.70431 18.091C5.10868 18.5129 5.65713 18.75 6.229 18.75H9.58317C10.133 18.75 10.662 18.9692 11.0621 19.3627C11.4622 19.7562 11.7031 20.2943 11.7356 20.867L11.7394 21.022C11.7672 22.007 13.1769 21.986 13.1769 21V5C13.1769 4.00544 12.7983 3.05161 12.1243 2.34835C11.4504 1.64509 10.5363 1.25 9.58317 1.25ZM9.58317 2.75L9.73075 2.755C10.2758 2.79402 10.7864 3.04751 11.1593 3.46425C11.5321 3.88098 11.7395 4.42987 11.7394 5V18.002L11.6378 17.925C11.0358 17.4847 10.3183 17.249 9.58317 17.25H6.229C6.03838 17.25 5.85556 17.171 5.72077 17.0303C5.58598 16.8897 5.51025 16.6989 5.51025 16.5V3.5C5.51025 3.30109 5.58598 3.11032 5.72077 2.96967C5.85556 2.82902 6.03838 2.75 6.229 2.75H9.58317Z" fill="white"/>
<path d="M18.2082 8.25C18.3988 8.25 18.5816 8.32902 18.7164 8.46967C18.8512 8.61032 18.9269 8.80109 18.9269 9C18.9269 9.19891 18.8512 9.38968 18.7164 9.53033C18.5816 9.67098 18.3988 9.75 18.2082 9.75H15.3332C15.1425 9.75 14.9597 9.67098 14.8249 9.53033C14.6901 9.38968 14.6144 9.19891 14.6144 9C14.6144 8.80109 14.6901 8.61032 14.8249 8.46967C14.9597 8.32902 15.1425 8.25 15.3332 8.25H18.2082Z" fill="white"/>
<path d="M18.2082 11.75C18.3988 11.75 18.5816 11.829 18.7164 11.9697C18.8512 12.1103 18.9269 12.3011 18.9269 12.5C18.9269 12.6989 18.8512 12.8897 18.7164 13.0303C18.5816 13.171 18.3988 13.25 18.2082 13.25H15.3332C15.1425 13.25 14.9597 13.171 14.8249 13.0303C14.6901 12.8897 14.6144 12.6989 14.6144 12.5C14.6144 12.3011 14.6901 12.1103 14.8249 11.9697C14.9597 11.829 15.1425 11.75 15.3332 11.75H18.2082Z" fill="white"/>
<path d="M18.2082 15.25C18.3988 15.25 18.5816 15.329 18.7164 15.4697C18.8512 15.6103 18.9269 15.8011 18.9269 16C18.9269 16.1989 18.8512 16.3897 18.7164 16.5303C18.5816 16.671 18.3988 16.75 18.2082 16.75H15.3332C15.1425 16.75 14.9597 16.671 14.8249 16.5303C14.6901 16.3897 14.6144 16.1989 14.6144 16C14.6144 15.8011 14.6901 15.6103 14.8249 15.4697C14.9597 15.329 15.1425 15.25 15.3332 15.25H18.2082Z" fill="white"/>
<path d="M4.7915 3.25C4.98213 3.25 5.16495 3.32902 5.29974 3.46967C5.43453 3.61032 5.51025 3.80109 5.51025 4C5.51025 4.19891 5.43453 4.38968 5.29974 4.53033C5.16495 4.67098 4.98213 4.75 4.7915 4.75H3.83317C3.17192 4.75 2.63525 5.31 2.63525 6V19C2.63525 19.69 3.17192 20.25 3.83317 20.25H19.1665C19.8278 20.25 20.3644 19.69 20.3644 19V6C20.3644 5.31 19.8278 4.75 19.1665 4.75H12.2924C12.1018 4.75 11.9189 4.67098 11.7841 4.53033C11.6494 4.38968 11.5736 4.19891 11.5736 4C11.5736 3.80109 11.6494 3.61032 11.7841 3.46967C11.9189 3.32902 12.1018 3.25 12.2924 3.25H19.1665C19.8655 3.25 20.5358 3.53973 21.03 4.05546C21.5243 4.57118 21.8019 5.27065 21.8019 6V19C21.8019 19.7293 21.5243 20.4288 21.03 20.9445C20.5358 21.4603 19.8655 21.75 19.1665 21.75H3.83317C3.13421 21.75 2.46389 21.4603 1.96965 20.9445C1.47541 20.4288 1.19775 19.7293 1.19775 19V6C1.19775 5.27065 1.47541 4.57118 1.96965 4.05546C2.46389 3.53973 3.13421 3.25 3.83317 3.25H4.7915Z" fill="white"/>
</svg>
