<svg width="23" height="23" viewBox="0 0 23 23" fill="none" xmlns="http://www.w3.org/2000/svg">
<path d="M11.5002 1.67676C6.076 1.67676 1.67725 6.07551 1.67725 11.4997C1.67725 16.9238 6.076 21.3226 11.5002 21.3226C16.9243 21.3226 21.3231 16.9238 21.3231 11.4997C21.3231 6.07551 16.9243 1.67676 11.5002 1.67676ZM11.5002 3.11426C13.7241 3.11426 15.857 3.99772 17.4295 5.57029C19.0021 7.14286 19.8856 9.27572 19.8856 11.4997C19.8856 13.7236 19.0021 15.8565 17.4295 17.4291C15.857 19.0016 13.7241 19.8851 11.5002 19.8851C9.27621 19.8851 7.14335 19.0016 5.57078 17.4291C3.99821 15.8565 3.11475 13.7236 3.11475 11.4997C3.11475 9.27572 3.99821 7.14286 5.57078 5.57029C7.14335 3.99772 9.27621 3.11426 11.5002 3.11426Z" fill="white"/>
<path d="M11.5002 10.0622C11.6738 10.0622 11.8417 10.1251 11.9726 10.2392C12.1035 10.3534 12.1886 10.5111 12.2122 10.6832L12.2189 10.7809V14.1351H12.5783C12.752 14.1351 12.9198 14.198 13.0507 14.3122C13.1816 14.4263 13.2667 14.584 13.2903 14.7561L13.297 14.8538C13.297 15.0275 13.2341 15.1953 13.12 15.3262C13.0058 15.4571 12.8481 15.5423 12.676 15.5659L12.5783 15.5726H11.5002C11.3265 15.5726 11.1587 15.5097 11.0278 15.3955C10.8969 15.2814 10.8117 15.1237 10.7881 14.9516L10.7814 14.8538V11.4997H10.422C10.2484 11.4997 10.0805 11.4368 9.94965 11.3226C9.81875 11.2084 9.73362 11.0507 9.71 10.8787L9.70329 10.7809C9.7033 10.6072 9.7662 10.4394 9.88036 10.3085C9.99452 10.1776 10.1522 10.0925 10.3243 10.0689L10.422 10.0622H11.5002Z" fill="white"/>
<path d="M10.7699 7.14884C10.9634 7.00083 11.2061 6.93209 11.4485 6.9566C11.6909 6.98111 11.9149 7.09703 12.0749 7.28079C12.2349 7.46455 12.3188 7.70235 12.3098 7.94582C12.3007 8.1893 12.1992 8.42017 12.0259 8.59149C11.8527 8.76281 11.6207 8.86171 11.3771 8.86808C11.1336 8.87445 10.8967 8.78781 10.7148 8.62578C10.5328 8.46374 10.4194 8.23849 10.3976 7.99582C10.3758 7.75315 10.4472 7.51129 10.5974 7.31942L10.6789 7.22742L10.7699 7.14884Z" fill="white"/>
</svg>
