<svg width="23" height="24" viewBox="0 0 23 24" fill="none" xmlns="http://www.w3.org/2000/svg">
<path d="M18.2083 7.25H10.5417C9.84271 7.25 9.17238 7.53973 8.67815 8.05546C8.18391 8.57118 7.90625 9.27065 7.90625 10V16L7.91104 16.168C7.95204 16.867 8.24704 17.5233 8.73588 18.0031C9.22472 18.4829 9.87056 18.75 10.5417 18.75H13.1771L16.8187 21.6L16.905 21.658C17.0145 21.7205 17.1376 21.7522 17.2624 21.7499C17.3871 21.7477 17.5092 21.7116 17.6165 21.6452C17.7238 21.5788 17.8128 21.4844 17.8745 21.3713C17.9363 21.2582 17.9688 21.1302 17.9687 21V18.75H18.2083C18.9073 18.75 19.5776 18.4603 20.0719 17.9445C20.5661 17.4288 20.8437 16.7293 20.8437 16V10C20.8437 9.27065 20.5661 8.57118 20.0719 8.05546C19.5776 7.53973 18.9073 7.25 18.2083 7.25ZM10.5417 8.75H18.2083C18.8696 8.75 19.4062 9.31 19.4062 10V16C19.4062 16.69 18.8696 17.25 18.2083 17.25H17.25L17.1523 17.257C16.9802 17.2816 16.8225 17.3705 16.7083 17.5071C16.5942 17.6437 16.5313 17.8188 16.5312 18V19.5L13.8479 17.4C13.7235 17.3026 13.5722 17.25 13.4167 17.25H10.5417C9.88042 17.25 9.34375 16.69 9.34375 16V10C9.34375 9.31 9.88042 8.75 10.5417 8.75Z" fill="white"/>
<path d="M13.4167 3.25C14.0878 3.24997 14.7336 3.51709 15.2225 3.99689C15.7113 4.47669 16.0063 5.13302 16.0473 5.832L16.0521 6V8C16.052 8.19002 15.9828 8.37294 15.8585 8.51179C15.7342 8.65064 15.564 8.73507 15.3823 8.74803C15.2006 8.76098 15.021 8.70148 14.8798 8.58157C14.7385 8.46165 14.6461 8.29025 14.6213 8.102L14.6146 8V6C14.6147 5.69054 14.5048 5.39203 14.3062 5.16223C14.1076 4.93244 13.8343 4.78769 13.5393 4.756L13.4167 4.75H4.79167C4.4951 4.74986 4.20903 4.86451 3.98881 5.07177C3.76858 5.27903 3.62987 5.56417 3.5995 5.872L3.59375 6V12C3.59375 12.648 4.06525 13.18 4.669 13.244L4.79167 13.25H5.75C5.92369 13.25 6.09149 13.3156 6.22239 13.4348C6.35329 13.5539 6.43842 13.7184 6.46204 13.898L6.46875 14V15.597L8.22633 14.376C8.36961 14.2762 8.54248 14.2334 8.71345 14.2554C8.88442 14.2775 9.04212 14.3628 9.15783 14.496L9.223 14.584C9.31864 14.7335 9.35964 14.9139 9.33853 15.0923C9.31743 15.2707 9.23562 15.4353 9.108 15.556L9.02367 15.624L6.14867 17.624C6.04746 17.6947 5.9307 17.7374 5.80934 17.7481C5.68799 17.7587 5.56602 17.7371 5.45489 17.6851C5.34376 17.6331 5.24711 17.5525 5.17402 17.4509C5.10092 17.3492 5.05377 17.2299 5.037 17.104L5.03125 17V14.75H4.79167C4.12056 14.75 3.47472 14.4829 2.98588 14.0031C2.49704 13.5233 2.20204 12.867 2.16104 12.168L2.15625 12V6C2.15622 5.29971 2.41221 4.62579 2.87202 4.1157C3.33183 3.60561 3.96081 3.29778 4.63067 3.255L4.79167 3.25H13.4167Z" fill="white"/>
<path d="M11.3371 12.434C11.467 12.2987 11.6391 12.2165 11.8222 12.2023C12.0053 12.1882 12.1871 12.2431 12.3347 12.357L12.421 12.434C12.5509 12.5696 12.6298 12.7494 12.6434 12.9407C12.6569 13.132 12.6042 13.3219 12.4947 13.476L12.421 13.566C12.3497 13.6403 12.2652 13.6993 12.1721 13.7395C12.079 13.7797 11.9793 13.8004 11.8785 13.8004C11.7778 13.8004 11.6781 13.7797 11.585 13.7395C11.4919 13.6993 11.4074 13.6403 11.3361 13.566C11.2649 13.4917 11.2084 13.4034 11.1698 13.3063C11.1313 13.2092 11.1114 13.1051 11.1114 13C11.1114 12.8949 11.1313 12.7908 11.1698 12.6937C11.2084 12.5966 11.2659 12.5083 11.3371 12.434Z" fill="white"/>
<path d="M13.8326 12.434C13.9625 12.2984 14.1349 12.216 14.3182 12.2019C14.5015 12.1878 14.6835 12.2428 14.8312 12.357L14.9174 12.434C15.0474 12.5696 15.1263 12.7494 15.1398 12.9407C15.1534 13.132 15.1006 13.3219 14.9912 13.476L14.9174 13.566C14.7736 13.7161 14.5784 13.8004 14.375 13.8004C14.1716 13.8004 13.9764 13.7161 13.8326 13.566C13.6887 13.4159 13.6079 13.2123 13.6079 13C13.6079 12.7877 13.6887 12.5841 13.8326 12.434Z" fill="white"/>
<path d="M16.33 12.434C16.4599 12.2987 16.632 12.2165 16.8151 12.2023C16.9982 12.1882 17.18 12.2431 17.3276 12.357L17.4139 12.434C17.5438 12.5696 17.6228 12.7494 17.6363 12.9407C17.6499 13.132 17.5971 13.3219 17.4877 13.476L17.4139 13.566C17.27 13.7161 17.0749 13.8004 16.8715 13.8004C16.668 13.8004 16.4729 13.7161 16.329 13.566C16.1852 13.4159 16.1044 13.2123 16.1044 13C16.1044 12.7877 16.1852 12.5841 16.329 12.434H16.33Z" fill="white"/>
</svg>
