<svg width="23" height="24" viewBox="0 0 23 24" fill="none" xmlns="http://www.w3.org/2000/svg">
<path d="M19.8855 5.25C20.0676 5.25006 20.2429 5.32224 20.376 5.45197C20.5091 5.5817 20.59 5.7593 20.6024 5.94888C20.6148 6.13846 20.5578 6.32589 20.4429 6.4733C20.3279 6.62071 20.1637 6.7171 19.9833 6.743L19.8855 6.75H2.63552C2.45342 6.74994 2.27812 6.67776 2.14506 6.54803C2.01199 6.4183 1.93108 6.2407 1.91866 6.05112C1.90625 5.86154 1.96327 5.67411 2.07819 5.5267C2.19311 5.37929 2.35737 5.2829 2.53777 5.257L2.63552 5.25H19.8855Z" fill="white"/>
<path d="M17.1037 11.25C17.2623 11.2501 17.415 11.3222 17.5308 11.452C17.6467 11.5817 17.7172 11.7593 17.728 11.9489C17.7388 12.1385 17.6892 12.3259 17.5891 12.4733C17.489 12.6207 17.3459 12.7171 17.1888 12.743L17.1037 12.75H5.41783C5.25922 12.7499 5.10653 12.6778 4.99063 12.548C4.87474 12.4183 4.80426 12.2407 4.79345 12.0511C4.78264 11.8615 4.8323 11.6741 4.93239 11.5267C5.03249 11.3793 5.17556 11.2829 5.33269 11.257L5.41783 11.25H17.1037Z" fill="white"/>
<path d="M14.3234 17.25C14.458 17.2501 14.5876 17.3222 14.6859 17.452C14.7843 17.5817 14.8441 17.7593 14.8533 17.9489C14.8624 18.1385 14.8203 18.3259 14.7353 18.4733C14.6504 18.6207 14.529 18.7171 14.3956 18.743L14.3234 18.75H7.23977C7.10516 18.7499 6.97559 18.6778 6.87723 18.548C6.77888 18.4183 6.71907 18.2407 6.7099 18.0511C6.70072 17.8615 6.74286 17.6741 6.82781 17.5267C6.91275 17.3793 7.03417 17.2829 7.16752 17.257L7.23977 17.25H14.3234Z" fill="white"/>
</svg>
