<svg width="23" height="24" viewBox="0 0 23 24" fill="none" xmlns="http://www.w3.org/2000/svg">
<path d="M17.7291 5.75C17.9028 5.75001 18.0706 5.81564 18.2015 5.93477C18.3324 6.05389 18.4175 6.21845 18.4412 6.398L18.4479 6.5V19C18.4479 19.7003 18.1919 20.3742 17.7321 20.8843C17.2723 21.3944 16.6433 21.7022 15.9734 21.745L15.8124 21.75H7.18744C6.51634 21.75 5.8705 21.4829 5.38166 21.0031C4.89282 20.5233 4.59782 19.867 4.55682 19.168L4.55203 19V6.5C4.55208 6.30998 4.62126 6.12706 4.74558 5.98821C4.86991 5.84936 5.0401 5.76493 5.22179 5.75197C5.40347 5.73902 5.58309 5.79852 5.72436 5.91843C5.86562 6.03835 5.958 6.20975 5.98282 6.398L5.98953 6.5V19C5.98953 19.647 6.46103 20.18 7.06478 20.244L7.18744 20.25H15.8124C16.109 20.2501 16.3951 20.1355 16.6153 19.9282C16.8355 19.721 16.9742 19.4358 17.0046 19.128L17.0104 19V6.5C17.0104 6.30109 17.0861 6.11032 17.2209 5.96967C17.3557 5.82902 17.5385 5.75 17.7291 5.75Z" fill="white"/>
<path d="M19.1666 5.75C19.3487 5.75006 19.524 5.82224 19.6571 5.95197C19.7901 6.0817 19.8711 6.2593 19.8835 6.44888C19.8959 6.63846 19.8389 6.82589 19.7239 6.9733C19.609 7.12071 19.4448 7.2171 19.2644 7.243L19.1666 7.25H3.83328C3.65117 7.24994 3.47588 7.17776 3.34281 7.04803C3.20974 6.9183 3.12883 6.7407 3.11642 6.55112C3.10401 6.36154 3.16102 6.17411 3.27594 6.0267C3.39086 5.87929 3.55512 5.7829 3.73553 5.757L3.83328 5.75H19.1666Z" fill="white"/>
<path d="M13.4166 10.25C13.5903 10.25 13.7581 10.3156 13.889 10.4348C14.0199 10.5539 14.105 10.7184 14.1287 10.898L14.1354 11V17C14.1353 17.19 14.0661 17.3729 13.9418 17.5118C13.8175 17.6506 13.6473 17.7351 13.4656 17.748C13.2839 17.761 13.1043 17.7015 12.963 17.5816C12.8218 17.4617 12.7294 17.2902 12.7046 17.102L12.6979 17V11C12.6979 10.8011 12.7736 10.6103 12.9084 10.4697C13.0432 10.329 13.226 10.25 13.4166 10.25Z" fill="white"/>
<path d="M9.58328 10.25C9.75696 10.25 9.92477 10.3156 10.0557 10.4348C10.1866 10.5539 10.2717 10.7184 10.2953 10.898L10.302 11V17C10.302 17.19 10.2328 17.3729 10.1085 17.5118C9.98415 17.6506 9.81395 17.7351 9.63227 17.748C9.45058 17.761 9.27096 17.7015 9.1297 17.5816C8.98843 17.4617 8.89606 17.2902 8.87124 17.102L8.86453 17V11C8.86453 10.8011 8.94025 10.6103 9.07504 10.4697C9.20984 10.329 9.39265 10.25 9.58328 10.25Z" fill="white"/>
<path d="M13.4166 2.25C13.963 2.24993 14.489 2.4663 14.8884 2.85537C15.2877 3.24444 15.5307 3.77721 15.5681 4.346L15.5729 4.5V6C15.5728 6.19002 15.5036 6.37294 15.3793 6.51179C15.255 6.65064 15.0848 6.73507 14.9031 6.74803C14.7214 6.76098 14.5418 6.70148 14.4005 6.58157C14.2593 6.46165 14.1669 6.29025 14.1421 6.102L14.1354 6V4.5C14.1354 4.31876 14.0725 4.14366 13.9583 4.00707C13.8441 3.87048 13.6864 3.78165 13.5144 3.757L13.4166 3.75H9.58328C9.40959 3.75001 9.24178 3.81564 9.11089 3.93477C8.97999 4.05389 8.89486 4.21845 8.87124 4.398L8.86453 4.5V6.5C8.86447 6.69002 8.79529 6.87294 8.67097 7.01179C8.54665 7.15064 8.37645 7.23507 8.19477 7.24803C8.01308 7.26098 7.83346 7.20148 7.6922 7.08157C7.55093 6.96165 7.45856 6.79025 7.43374 6.602L7.42703 6.5V4.5C7.42696 3.92987 7.63431 3.38098 8.00717 2.96425C8.38004 2.54751 8.8906 2.29402 9.43569 2.255L9.58328 2.25H13.4166Z" fill="white"/>
</svg>
