<svg width="23" height="24" viewBox="0 0 23 24" fill="none" xmlns="http://www.w3.org/2000/svg">
<path d="M16.4199 7.6931C16.548 7.55856 16.7202 7.47965 16.9018 7.47225C17.0834 7.46485 17.2609 7.52952 17.3987 7.65323C17.5364 7.77694 17.6242 7.95051 17.6442 8.139C17.6642 8.32748 17.6151 8.51689 17.5067 8.6691L17.4367 8.7531L10.1956 16.3091C10.0739 16.4361 9.91252 16.5133 9.74088 16.5267C9.56923 16.5401 9.39867 16.4888 9.26022 16.3821L9.17972 16.3091L5.5601 12.5311C5.43268 12.3971 5.35837 12.2179 5.35201 12.0292C5.34564 11.8406 5.40768 11.6564 5.52575 11.5133C5.64382 11.3703 5.80923 11.279 5.98897 11.2577C6.16871 11.2363 6.34957 11.2864 6.49543 11.3981L6.57593 11.4711L9.68764 14.7171L16.4199 7.6931Z" fill="white"/>
</svg>
