<svg width="23" height="24" viewBox="0 0 23 24" fill="none" xmlns="http://www.w3.org/2000/svg">
<path d="M7.15893 9.47016C7.28063 9.34314 7.44197 9.26591 7.61361 9.25252C7.78526 9.23912 7.95581 9.29044 8.09426 9.39716L8.17476 9.47016L11.5002 12.9392L14.8256 9.46916C14.9474 9.34229 15.1088 9.26525 15.2805 9.25203C15.4521 9.23882 15.6226 9.29032 15.7609 9.39716L15.8414 9.47016C15.9632 9.59715 16.0372 9.7655 16.05 9.94461C16.0628 10.1237 16.0137 10.3017 15.9114 10.4462L15.8414 10.5302L12.0081 14.5302C11.8864 14.6572 11.7251 14.7344 11.5534 14.7478C11.3818 14.7612 11.2112 14.7099 11.0728 14.6032L10.9923 14.5302L7.15893 10.5302C7.02433 10.3895 6.94873 10.1989 6.94873 10.0002C6.94873 9.80141 7.02433 9.61078 7.15893 9.47016Z" fill="white"/>
</svg>
