<svg width="23" height="24" viewBox="0 0 23 24" fill="none" xmlns="http://www.w3.org/2000/svg">
<path d="M18.2083 2.25C18.8794 2.24997 19.5253 2.51709 20.0141 2.99689C20.503 3.47669 20.798 4.13302 20.839 4.832L20.8437 5V8C20.8437 8.19002 20.7745 8.37294 20.6502 8.51179C20.5259 8.65064 20.3557 8.73507 20.174 8.74803C19.9923 8.76098 19.8127 8.70148 19.6714 8.58157C19.5302 8.46165 19.4378 8.29025 19.413 8.102L19.4062 8V5C19.4064 4.69054 19.2965 4.39203 19.0979 4.16223C18.8993 3.93244 18.626 3.78769 18.331 3.756L18.2083 3.75H15.3333C15.1512 3.74994 14.9759 3.67776 14.8429 3.54803C14.7098 3.4183 14.6289 3.2407 14.6165 3.05112C14.6041 2.86154 14.6611 2.67411 14.776 2.5267C14.8909 2.37929 15.0552 2.2829 15.2356 2.257L15.3333 2.25H18.2083Z" fill="white"/>
<path d="M7.66667 2.25C7.84877 2.25006 8.02407 2.32224 8.15713 2.45197C8.2902 2.5817 8.37111 2.7593 8.38352 2.94888C8.39594 3.13846 8.33892 3.32589 8.224 3.4733C8.10908 3.62071 7.94482 3.7171 7.76442 3.743L7.66667 3.75H4.79167C4.4951 3.74986 4.20903 3.86451 3.98881 4.07177C3.76858 4.27903 3.62987 4.56417 3.5995 4.872L3.59375 5V8C3.59369 8.19002 3.52452 8.37294 3.40019 8.51179C3.27587 8.65064 3.10567 8.73507 2.92399 8.74803C2.74231 8.76098 2.56269 8.70148 2.42142 8.58157C2.28016 8.46165 2.18778 8.29025 2.16296 8.102L2.15625 8V5C2.15622 4.29971 2.41221 3.62579 2.87202 3.1157C3.33183 2.60561 3.96081 2.29778 4.63067 2.255L4.79167 2.25H7.66667Z" fill="white"/>
<path d="M2.875 15.25C3.04869 15.25 3.21649 15.3156 3.34739 15.4348C3.47829 15.5539 3.56342 15.7184 3.58704 15.898L3.59375 16V19C3.59375 19.648 4.06525 20.18 4.669 20.244L4.79167 20.25H7.66667C7.84877 20.2501 8.02407 20.3222 8.15713 20.452C8.2902 20.5817 8.37111 20.7593 8.38352 20.9489C8.39594 21.1385 8.33892 21.3259 8.224 21.4733C8.10908 21.6207 7.94482 21.7171 7.76442 21.743L7.66667 21.75H4.79167C4.12056 21.75 3.47472 21.4829 2.98588 21.0031C2.49704 20.5233 2.20204 19.867 2.16104 19.168L2.15625 19V16C2.15625 15.8011 2.23198 15.6103 2.36677 15.4697C2.50156 15.329 2.68438 15.25 2.875 15.25Z" fill="white"/>
<path d="M20.125 15.25C20.2987 15.25 20.4665 15.3156 20.5974 15.4348C20.7283 15.5539 20.8134 15.7184 20.837 15.898L20.8437 16V19C20.8438 19.7003 20.5878 20.3742 20.128 20.8843C19.6682 21.3944 19.0392 21.7022 18.3693 21.745L18.2083 21.75H15.3333C15.1512 21.7499 14.9759 21.6778 14.8429 21.548C14.7098 21.4183 14.6289 21.2407 14.6165 21.0511C14.6041 20.8615 14.6611 20.6741 14.776 20.5267C14.8909 20.3793 15.0552 20.2829 15.2356 20.257L15.3333 20.25H18.2083C18.5049 20.2501 18.791 20.1355 19.0112 19.9282C19.2314 19.721 19.3701 19.4358 19.4005 19.128L19.4062 19V16C19.4062 15.8011 19.482 15.6103 19.6168 15.4697C19.7516 15.329 19.9344 15.25 20.125 15.25Z" fill="white"/>
</svg>
