<svg width="23" height="23" viewBox="0 0 23 23" fill="none" xmlns="http://www.w3.org/2000/svg">
<path d="M9.58334 17.0104H17.25C18.2031 17.0104 19.1172 16.6318 19.7912 15.9578C20.4651 15.2839 20.8438 14.3698 20.8438 13.4167V5.75C20.8438 4.79688 20.4651 3.88279 19.7912 3.20883C19.1172 2.53488 18.2031 2.15625 17.25 2.15625H9.58334C8.63021 2.15625 7.71613 2.53488 7.04217 3.20883C6.36821 3.88279 5.98959 4.79688 5.98959 5.75V13.4167C5.98959 14.3698 6.36821 15.2839 7.04217 15.9578C7.71613 16.6318 8.63021 17.0104 9.58334 17.0104ZM9.58334 15.5729C9.01146 15.5729 8.46301 15.3457 8.05864 14.9414C7.65426 14.537 7.42709 13.9885 7.42709 13.4167V5.75C7.42709 5.17813 7.65426 4.62968 8.05864 4.2253C8.46301 3.82093 9.01146 3.59375 9.58334 3.59375H17.25C17.8219 3.59375 18.3703 3.82093 18.7747 4.2253C19.1791 4.62968 19.4063 5.17813 19.4063 5.75V13.4167C19.4063 13.9885 19.1791 14.537 18.7747 14.9414C18.3703 15.3457 17.8219 15.5729 17.25 15.5729H9.58334Z" fill="white"/>
<path d="M3.32542 6.19946C3.46038 6.06475 3.64333 5.98917 3.83401 5.98935C4.0247 5.98953 4.2075 6.06545 4.34221 6.20042C4.47692 6.33538 4.5525 6.51833 4.55232 6.70901C4.55214 6.8997 4.47621 7.0825 4.34125 7.21721C3.86209 7.69542 3.59375 8.34421 3.59375 9.02175V17.25C3.59375 17.8219 3.82093 18.3703 4.2253 18.7747C4.62968 19.1791 5.17813 19.4062 5.75 19.4062H13.9792C14.6558 19.4062 15.3046 19.1379 15.7828 18.6587C15.9175 18.5238 16.1003 18.4479 16.291 18.4477C16.4817 18.4475 16.6646 18.5231 16.7996 18.6578C16.9345 18.7925 17.0105 18.9753 17.0106 19.166C17.0108 19.3567 16.9353 19.5396 16.8005 19.6746C16.4303 20.0458 15.9904 20.3402 15.5061 20.5408C15.0217 20.7415 14.5025 20.8444 13.9783 20.8437H5.75C4.79688 20.8437 3.8828 20.4651 3.20884 19.7912C2.53488 19.1172 2.15625 18.2031 2.15625 17.25V9.02271C2.1557 8.49847 2.2587 7.97928 2.45934 7.49495C2.65998 7.01062 2.9543 6.56973 3.32542 6.19946Z" fill="white"/>
</svg>
