<svg width="23" height="24" viewBox="0 0 23 24" fill="none" xmlns="http://www.w3.org/2000/svg">
<path d="M5.75 18.25C5.92369 18.25 6.09149 18.3156 6.22239 18.4348C6.35329 18.5539 6.43842 18.7184 6.46204 18.898L6.46875 19V21C6.46869 21.19 6.39952 21.3729 6.27519 21.5118C6.15087 21.6506 5.98067 21.7351 5.79899 21.748C5.61731 21.761 5.43769 21.7015 5.29642 21.5816C5.15516 21.4617 5.06278 21.2902 5.03796 21.102L5.03125 21V19C5.03125 18.8011 5.10698 18.6103 5.24177 18.4697C5.37656 18.329 5.55938 18.25 5.75 18.25Z" fill="white"/>
<path d="M17.25 18.25C17.4237 18.25 17.5915 18.3156 17.7224 18.4348C17.8533 18.5539 17.9384 18.7184 17.962 18.898L17.9687 19V21C17.9687 21.19 17.8995 21.3729 17.7752 21.5118C17.6509 21.6506 17.4807 21.7351 17.299 21.748C17.1173 21.761 16.9377 21.7015 16.7964 21.5816C16.6552 21.4617 16.5628 21.2902 16.538 21.102L16.5312 21V19C16.5312 18.8011 16.607 18.6103 16.7418 18.4697C16.8766 18.329 17.0594 18.25 17.25 18.25Z" fill="white"/>
<path d="M11.5 8.25C10.801 8.25 10.1307 8.53973 9.63648 9.05546C9.14224 9.57118 8.86458 10.2707 8.86458 11C8.86458 11.7293 9.14224 12.4288 9.63648 12.9445C10.1307 13.4603 10.801 13.75 11.5 13.75C12.199 13.75 12.8693 13.4603 13.3635 12.9445C13.8578 12.4288 14.1354 11.7293 14.1354 11C14.1354 10.2707 13.8578 9.57118 13.3635 9.05546C12.8693 8.53973 12.199 8.25 11.5 8.25ZM11.5 9.75C11.8177 9.75 12.1224 9.8817 12.3471 10.1161C12.5717 10.3505 12.6979 10.6685 12.6979 11C12.6979 11.3315 12.5717 11.6495 12.3471 11.8839C12.1224 12.1183 11.8177 12.25 11.5 12.25C11.1823 12.25 10.8776 12.1183 10.6529 11.8839C10.4283 11.6495 10.3021 11.3315 10.3021 11C10.3021 10.6685 10.4283 10.3505 10.6529 10.1161C10.8776 9.8817 11.1823 9.75 11.5 9.75Z" fill="white"/>
<path d="M11.5 6.25C11.6737 6.25001 11.8415 6.31564 11.9724 6.43477C12.1033 6.55389 12.1884 6.71845 12.212 6.898L12.2187 7V9C12.2187 9.19002 12.1495 9.37294 12.0252 9.51179C11.9009 9.65064 11.7307 9.73507 11.549 9.74803C11.3673 9.76098 11.1877 9.70148 11.0464 9.58157C10.9052 9.46165 10.8128 9.29025 10.788 9.102L10.7812 9V7C10.7812 6.80109 10.857 6.61032 10.9918 6.46967C11.1266 6.32902 11.3094 6.25 11.5 6.25Z" fill="white"/>
<path d="M11.5 12.25C11.6737 12.25 11.8415 12.3156 11.9724 12.4348C12.1033 12.5539 12.1884 12.7184 12.212 12.898L12.2187 13V15C12.2187 15.19 12.1495 15.3729 12.0252 15.5118C11.9009 15.6506 11.7307 15.7351 11.549 15.748C11.3673 15.761 11.1877 15.7015 11.0464 15.5816C10.9052 15.4617 10.8128 15.2903 10.788 15.102L10.7812 15V13C10.7812 12.8011 10.857 12.6103 10.9918 12.4697C11.1266 12.329 11.3094 12.25 11.5 12.25Z" fill="white"/>
<path d="M15.3333 10.25C15.5154 10.2501 15.6907 10.3222 15.8238 10.452C15.9569 10.5817 16.0378 10.7593 16.0502 10.9489C16.0626 11.1385 16.0056 11.3259 15.8907 11.4733C15.7757 11.6207 15.6115 11.7171 15.4311 11.743L15.3333 11.75H13.4167C13.2346 11.7499 13.0593 11.6778 12.9262 11.548C12.7931 11.4183 12.7122 11.2407 12.6998 11.0511C12.6874 10.8615 12.7444 10.6741 12.8593 10.5267C12.9743 10.3793 13.1385 10.2829 13.3189 10.257L13.4167 10.25H15.3333Z" fill="white"/>
<path d="M9.58333 10.25C9.76544 10.2501 9.94073 10.3222 10.0738 10.452C10.2069 10.5817 10.2878 10.7593 10.3002 10.9489C10.3126 11.1385 10.2556 11.3259 10.1407 11.4733C10.0257 11.6207 9.86149 11.7171 9.68108 11.743L9.58333 11.75H7.66667C7.48456 11.7499 7.30926 11.6778 7.1762 11.548C7.04313 11.4183 6.96222 11.2407 6.94981 11.0511C6.9374 10.8615 6.99441 10.6741 7.10933 10.5267C7.22425 10.3793 7.38851 10.2829 7.56892 10.257L7.66667 10.25H9.58333Z" fill="white"/>
<path d="M4.46296 19.75H18.537C19.1488 19.75 19.7355 19.4964 20.1681 19.045C20.6007 18.5936 20.8437 17.9814 20.8437 17.343V4.657C20.8437 4.01862 20.6007 3.40639 20.1681 2.95499C19.7355 2.50359 19.1488 2.25 18.537 2.25H4.46296C3.85118 2.25 3.26446 2.50359 2.83187 2.95499C2.39928 3.40639 2.15625 4.01862 2.15625 4.657V17.343C2.15625 17.9814 2.39928 18.5936 2.83187 19.045C3.26446 19.4964 3.85118 19.75 4.46296 19.75ZM18.537 18.25H4.46296C4.23243 18.25 4.01134 18.1544 3.84834 17.9843C3.68533 17.8142 3.59375 17.5836 3.59375 17.343V4.657C3.59375 4.156 3.98283 3.75 4.46296 3.75H18.537C19.0172 3.75 19.4062 4.156 19.4062 4.657V17.343C19.4062 17.844 19.0172 18.25 18.537 18.25Z" fill="white"/>
</svg>
