<svg width="23" height="23" viewBox="0 0 23 23" fill="none" xmlns="http://www.w3.org/2000/svg">
<path d="M19.1667 10.7809H16.2917C16.101 10.7809 15.9182 10.8566 15.7834 10.9914C15.6486 11.1262 15.5729 11.309 15.5729 11.4997V18.208C15.573 18.8731 15.8246 19.5135 16.2771 20.0008C16.7296 20.4882 17.3496 20.7864 18.0128 20.8358L18.1825 20.8434C18.5305 20.8462 18.8757 20.7801 19.1982 20.649C19.5206 20.5178 19.814 20.3242 20.0613 20.0793C20.3087 19.8344 20.5051 19.5429 20.6394 19.2218C20.7737 18.9006 20.8431 18.5561 20.8437 18.208V12.458C20.8437 12.0132 20.6671 11.5866 20.3525 11.2721C20.038 10.9576 19.6115 10.7809 19.1667 10.7809ZM17.0104 18.208V12.2184H19.1667C19.2302 12.2184 19.2911 12.2437 19.3361 12.2886C19.381 12.3335 19.4062 12.3945 19.4062 12.458V18.208C19.4062 18.8693 18.8696 19.4059 18.2083 19.4059L18.0914 19.4011C17.4953 19.357 17.0104 18.8357 17.0104 18.208Z" fill="white"/>
<path d="M12.4583 6.94759C12.6404 6.94765 12.8157 7.01683 12.9488 7.14115C13.0819 7.26547 13.1628 7.43567 13.1752 7.61735C13.1876 7.79903 13.1306 7.97865 13.0157 8.11992C12.9007 8.26118 12.7365 8.35356 12.5561 8.37838L12.4583 8.38509H6.70833C6.52623 8.38504 6.35093 8.31586 6.21787 8.19153C6.0848 8.06721 6.00389 7.89701 5.99148 7.71533C5.97906 7.53365 6.03608 7.35403 6.151 7.21276C6.26592 7.0715 6.43018 6.97912 6.61058 6.9543L6.70833 6.94759H12.4583Z" fill="white"/>
<path d="M12.4583 10.6563C12.6404 10.6564 12.8157 10.7256 12.9488 10.8499C13.0819 10.9742 13.1628 11.1444 13.1752 11.3261C13.1876 11.5078 13.1306 11.6874 13.0157 11.8287C12.9007 11.9699 12.7365 12.0623 12.5561 12.0871L12.4583 12.0938H6.70833C6.52623 12.0938 6.35093 12.0246 6.21787 11.9003C6.0848 11.776 6.00389 11.6058 5.99148 11.4241C5.97906 11.2424 6.03608 11.0628 6.151 10.9215C6.26592 10.7802 6.43018 10.6879 6.61058 10.663L6.70833 10.6563H12.4583Z" fill="white"/>
<path d="M9.58333 14.6718C9.76544 14.6718 9.94073 14.741 10.0738 14.8653C10.2069 14.9896 10.2878 15.1598 10.3002 15.3415C10.3126 15.5232 10.2556 15.7028 10.1407 15.8441C10.0257 15.9854 9.86149 16.0777 9.68108 16.1025L9.58333 16.1093H6.70833C6.52623 16.1092 6.35093 16.04 6.21787 15.9157C6.0848 15.7914 6.00389 15.6212 5.99148 15.4395C5.97906 15.2578 6.03608 15.0782 6.151 14.9369C6.26592 14.7957 6.43018 14.7033 6.61058 14.6785L6.70833 14.6718H9.58333Z" fill="white"/>
<path d="M15.3333 3.11426C15.7544 3.11429 16.16 3.2727 16.4696 3.55801C16.7793 3.84332 16.9703 4.23466 17.0047 4.6543L17.0104 4.79134V11.4997C17.0104 11.6818 16.9412 11.8571 16.8169 11.9901C16.6925 12.1232 16.5223 12.2041 16.3407 12.2165C16.159 12.2289 15.9794 12.1719 15.8381 12.057C15.6968 11.9421 15.6044 11.7778 15.5796 11.5974L15.5729 11.4997V4.79134C15.5728 4.73736 15.5545 4.685 15.5209 4.64273C15.4874 4.60047 15.4405 4.57077 15.388 4.55847L15.3333 4.55176H3.83333C3.77936 4.55185 3.72699 4.57016 3.68472 4.60373C3.64246 4.6373 3.61276 4.68416 3.60046 4.73672L3.59375 4.79134V18.208C3.59375 18.829 4.06525 19.3388 4.669 19.4002L4.79167 19.4059H18.2083C18.3904 19.406 18.5657 19.4752 18.6988 19.5995C18.8319 19.7238 18.9128 19.894 18.9252 20.0757C18.9376 20.2574 18.8806 20.437 18.7657 20.5783C18.6507 20.7195 18.4865 20.8119 18.3061 20.8367L18.2083 20.8434H4.79167C4.12056 20.8435 3.47472 20.5875 2.98588 20.1277C2.49704 19.6678 2.20204 19.0389 2.16104 18.369L2.15625 18.208V4.79134C2.15629 4.3703 2.31469 3.96467 2.6 3.65504C2.88532 3.3454 3.27666 3.15441 3.69629 3.12001L3.83333 3.11426H15.3333Z" fill="white"/>
</svg>
