<svg width="23" height="24" viewBox="0 0 23 24" fill="none" xmlns="http://www.w3.org/2000/svg">
<path d="M9.07524 7.46973C9.19694 7.34271 9.35828 7.26549 9.52992 7.25209C9.70157 7.23869 9.87212 7.29002 10.0106 7.39673L10.0911 7.46973L13.9244 11.4697C14.0461 11.5967 14.1201 11.7651 14.133 11.9442C14.1458 12.1233 14.0966 12.3013 13.9944 12.4457L13.9244 12.5297L10.0911 16.5297C9.96266 16.6627 9.79092 16.7402 9.61013 16.7469C9.42934 16.7535 9.25279 16.6888 9.11573 16.5656C8.97867 16.4424 8.89117 16.2698 8.8707 16.0822C8.85023 15.8947 8.89829 15.7059 9.00528 15.5537L9.07524 15.4697L12.3997 11.9997L9.07428 8.52973C8.9527 8.40262 8.87887 8.2342 8.86621 8.05509C8.85354 7.87599 8.90289 7.69809 9.00528 7.55373L9.07524 7.46973Z" fill="white"/>
</svg>
