<svg width="23" height="24" viewBox="0 0 23 24" fill="none" xmlns="http://www.w3.org/2000/svg">
<path d="M18.2084 11.2496C18.3905 11.2496 18.5658 11.3218 18.6989 11.4515C18.832 11.5813 18.9129 11.7589 18.9253 11.9484C18.9377 12.138 18.8807 12.3254 18.7658 12.4729C18.6509 12.6203 18.4866 12.7167 18.3062 12.7426L18.2084 12.7496H4.79177C4.60967 12.7495 4.43437 12.6773 4.30131 12.5476C4.16824 12.4179 4.08733 12.2403 4.07491 12.0507C4.0625 11.8611 4.11952 11.6737 4.23444 11.5263C4.34936 11.3789 4.51362 11.2825 4.69402 11.2566L4.79177 11.2496H18.2084Z" fill="white"/>
<path d="M9.07552 6.46956C9.20394 6.3366 9.37568 6.25906 9.55647 6.25242C9.73726 6.24577 9.91381 6.31051 10.0509 6.43372C10.1879 6.55692 10.2754 6.72952 10.2959 6.91708C10.3164 7.10463 10.2683 7.29335 10.1613 7.44556L10.0914 7.52956L5.29969 12.5296C5.17127 12.6625 4.99953 12.7401 4.81874 12.7467C4.63795 12.7533 4.46141 12.6886 4.32434 12.5654C4.18728 12.4422 4.09978 12.2696 4.07931 12.082C4.05884 11.8945 4.1069 11.7058 4.2139 11.5536L4.28386 11.4696L9.07552 6.46956Z" fill="white"/>
<path d="M4.28386 11.4696C4.40555 11.3425 4.56689 11.2653 4.73854 11.2519C4.91018 11.2385 5.08074 11.2898 5.21919 11.3966L5.29969 11.4696L10.0914 16.4696C10.2188 16.6036 10.2931 16.7828 10.2994 16.9714C10.3058 17.1601 10.2438 17.3443 10.1257 17.4873C10.0076 17.6303 9.84222 17.7216 9.66248 17.743C9.48274 17.7644 9.30189 17.7142 9.15602 17.6026L9.07552 17.5296L4.28386 12.5296C4.14926 12.3889 4.07366 12.1983 4.07366 11.9996C4.07366 11.8008 4.14926 11.6102 4.28386 11.4696Z" fill="white"/>
</svg>
