<svg width="23" height="24" viewBox="0 0 23 24" fill="none" xmlns="http://www.w3.org/2000/svg">
<path d="M10.5897 3.24023L10.4919 3.24723L10.4679 3.25223L10.5897 3.25023C8.60589 3.25023 6.70338 4.07254 5.30064 5.53627C3.89791 6.99999 3.10986 8.98522 3.10986 11.0552C3.10986 13.1252 3.89791 15.1105 5.30064 16.5742C6.70338 18.0379 8.60589 18.8602 10.5897 18.8602C12.5747 18.8602 14.4784 18.0374 15.8821 16.5727C17.2857 15.1081 18.0742 13.1216 18.0742 11.0502C18.0742 8.97889 17.2857 6.99239 15.8821 5.52773C14.4784 4.06307 12.5747 3.24023 10.5897 3.24023ZM10.5897 4.75023L10.6874 4.74323L10.5897 4.74023C12.1934 4.74023 13.7315 5.40504 14.8656 6.58839C15.9996 7.77175 16.6367 9.37672 16.6367 11.0502C16.6367 12.7238 15.9996 14.3287 14.8656 15.5121C13.7315 16.6954 12.1934 17.3602 10.5897 17.3602C8.98714 17.3602 7.45026 16.696 6.31711 15.5135C5.18396 14.3311 4.54736 12.7274 4.54736 11.0552C4.54736 9.38304 5.18396 7.77934 6.31711 6.59693C7.45026 5.41451 8.98714 4.75023 10.5897 4.75023Z" fill="white"/>
<path d="M7.37732 7.92123C7.79833 7.47859 8.29898 7.12707 8.85052 6.88685C9.40206 6.64664 9.99364 6.52245 10.5913 6.52143C11.189 6.52041 11.7809 6.64257 12.3332 6.8809C12.8855 7.11923 13.3873 7.46903 13.8097 7.91023C13.8803 7.9789 13.9369 8.0617 13.9762 8.1537C14.0155 8.2457 14.0366 8.34501 14.0383 8.44571C14.04 8.54641 14.0223 8.64644 13.9861 8.73983C13.95 8.83322 13.8962 8.91805 13.8279 8.98927C13.7596 9.06049 13.6784 9.11664 13.5889 9.15436C13.4994 9.19208 13.4035 9.2106 13.307 9.20883C13.2105 9.20705 13.1153 9.18501 13.0271 9.14402C12.939 9.10302 12.8596 9.04392 12.7938 8.97023C12.234 8.38526 11.4808 8.04607 10.6888 8.02226C9.89685 7.99846 9.12619 8.29185 8.53499 8.84223L8.44586 8.93023L8.39507 8.99023C8.28436 9.10614 8.14028 9.18096 7.98491 9.20323L7.88716 9.21023C7.71347 9.21023 7.54566 9.14459 7.41476 9.02547C7.28387 8.90634 7.19873 8.74179 7.17511 8.56223L7.1684 8.45023C7.16832 8.25202 7.24343 8.06183 7.37732 7.92123Z" fill="white"/>
<path d="M14.8734 15.5202C14.9951 15.3932 15.1564 15.316 15.3281 15.3026C15.4997 15.2892 15.6703 15.3405 15.8087 15.4472L15.8892 15.5202L19.6747 19.4702C19.8021 19.6042 19.8764 19.7834 19.8827 19.9721C19.8891 20.1607 19.8271 20.345 19.709 20.488C19.5909 20.631 19.4255 20.7223 19.2458 20.7437C19.066 20.765 18.8852 20.7149 18.7393 20.6032L18.6588 20.5302L14.8734 16.5802C14.7388 16.4396 14.6632 16.249 14.6632 16.0502C14.6632 15.8515 14.7388 15.6609 14.8734 15.5202Z" fill="white"/>
</svg>
