<svg width="23" height="23" viewBox="0 0 23 23" fill="none" xmlns="http://www.w3.org/2000/svg">
<path d="M19.1961 9.13352L12.0086 16.321C11.9418 16.3878 11.8626 16.4409 11.7753 16.477C11.6881 16.5132 11.5945 16.5318 11.5001 16.5318C11.4056 16.5318 11.3121 16.5132 11.2248 16.477C11.1376 16.4409 11.0583 16.3878 10.9916 16.321L3.80406 9.13352C3.70343 9.033 3.63488 8.90488 3.6071 8.76538C3.57932 8.62588 3.59356 8.48127 3.64801 8.34987C3.70245 8.21847 3.79466 8.10617 3.91297 8.0272C4.03127 7.94823 4.17034 7.90614 4.31258 7.90625H18.6876C18.8298 7.90614 18.9689 7.94823 19.0872 8.0272C19.2055 8.10617 19.2977 8.21847 19.3521 8.34987C19.4066 8.48127 19.4208 8.62588 19.3931 8.76538C19.3653 8.90488 19.2967 9.033 19.1961 9.13352Z" fill="#EC4B6B"/>
</svg>
