<svg width="23" height="24" viewBox="0 0 23 24" fill="none" xmlns="http://www.w3.org/2000/svg">
<path d="M11.5 2.25C11.6737 2.25001 11.8415 2.31564 11.9724 2.43477C12.1033 2.55389 12.1884 2.71845 12.212 2.898L12.2187 3V17C12.2187 17.19 12.1495 17.3729 12.0252 17.5118C11.9009 17.6506 11.7307 17.7351 11.549 17.748C11.3673 17.761 11.1877 17.7015 11.0464 17.5816C10.9052 17.4617 10.8128 17.2903 10.788 17.102L10.7812 17V3C10.7812 2.80109 10.857 2.61032 10.9918 2.46967C11.1266 2.32902 11.3094 2.25 11.5 2.25Z" fill="white"/>
<path d="M10.9918 2.46967C11.1135 2.34265 11.2751 2.26575 11.4468 2.25236C11.6184 2.23896 11.789 2.29029 11.9274 2.397L12.0079 2.47L14.8829 5.47C15.0103 5.604 15.0846 5.78321 15.091 5.97186C15.0974 6.16051 15.0353 6.34473 14.9173 6.48775C14.7992 6.63077 14.6338 6.72207 14.454 6.74344C14.2743 6.7648 14.0935 6.71465 13.9476 6.603L13.8671 6.53L11.5 4.061L9.13292 6.531C9.0111 6.65787 8.8497 6.73491 8.67805 6.74812C8.50641 6.76134 8.33592 6.70984 8.19758 6.603L8.11708 6.53C7.99536 6.40301 7.92135 6.23466 7.90851 6.05555C7.89567 5.87644 7.94486 5.69847 8.04712 5.554L8.11708 5.47L10.9918 2.46967Z" fill="white"/>
<path d="M7.66667 9.25C7.84877 9.25006 8.02407 9.32224 8.15713 9.45197C8.2902 9.5817 8.37111 9.7593 8.38352 9.94888C8.39594 10.1385 8.33892 10.3259 8.224 10.4733C8.10908 10.6207 7.94482 10.7171 7.76442 10.743L7.66667 10.75H4.79167C4.4951 10.7499 4.20903 10.8645 3.98881 11.0718C3.76858 11.279 3.62987 11.5642 3.5995 11.872L3.59375 12V19C3.59375 19.648 4.06525 20.18 4.669 20.244L4.79167 20.25H18.2083C18.5049 20.2501 18.791 20.1355 19.0112 19.9282C19.2314 19.721 19.3701 19.4358 19.4005 19.128L19.4062 19V12C19.4064 11.6905 19.2965 11.392 19.0979 11.1622C18.8993 10.9324 18.626 10.7877 18.331 10.756L18.2083 10.75H15.3333C15.1512 10.7499 14.9759 10.6778 14.8429 10.548C14.7098 10.4183 14.6289 10.2407 14.6165 10.0511C14.6041 9.86154 14.6611 9.67411 14.776 9.5267C14.8909 9.37929 15.0552 9.2829 15.2356 9.257L15.3333 9.25H18.2083C18.8794 9.24997 19.5253 9.51709 20.0141 9.99689C20.503 10.4767 20.798 11.133 20.839 11.832L20.8437 12V19C20.8438 19.7003 20.5878 20.3742 20.128 20.8843C19.6682 21.3944 19.0392 21.7022 18.3693 21.745L18.2083 21.75H4.79167C4.12056 21.75 3.47472 21.4829 2.98588 21.0031C2.49704 20.5233 2.20204 19.867 2.16104 19.168L2.15625 19V12C2.15622 11.2997 2.41221 10.6258 2.87202 10.1157C3.33183 9.60561 3.96081 9.29778 4.63067 9.255L4.79167 9.25H7.66667Z" fill="white"/>
</svg>
