<svg width="23" height="24" viewBox="0 0 23 24" fill="none" xmlns="http://www.w3.org/2000/svg">
<path d="M18.2084 11.2497C18.3905 11.2498 18.5658 11.322 18.6989 11.4517C18.832 11.5814 18.9129 11.759 18.9253 11.9486C18.9377 12.1382 18.8807 12.3256 18.7658 12.473C18.6509 12.6204 18.4866 12.7168 18.3062 12.7427L18.2084 12.7497H4.79177C4.60967 12.7497 4.43437 12.6775 4.30131 12.5478C4.16824 12.418 4.08733 12.2404 4.07491 12.0509C4.0625 11.8613 4.11952 11.6738 4.23444 11.5264C4.34936 11.379 4.51362 11.2826 4.69402 11.2567L4.79177 11.2497H18.2084Z" fill="white"/>
<path d="M17.7005 11.4697C17.8289 11.3368 18.0007 11.2592 18.1815 11.2526C18.3623 11.246 18.5388 11.3107 18.6759 11.4339C18.8129 11.5571 18.9004 11.7297 18.9209 11.9173C18.9414 12.1048 18.8933 12.2935 18.7863 12.4457L18.7164 12.5297L13.9247 17.5297C13.7963 17.6627 13.6245 17.7402 13.4437 17.7469C13.2629 17.7535 13.0864 17.6888 12.9493 17.5656C12.8123 17.4424 12.7248 17.2698 12.7043 17.0822C12.6838 16.8947 12.7319 16.7059 12.8389 16.5537L12.9089 16.4697L17.7005 11.4697Z" fill="white"/>
<path d="M12.9089 6.46973C13.0306 6.34271 13.1919 6.26549 13.3635 6.25209C13.5352 6.23869 13.7057 6.29002 13.8442 6.39673L13.9247 6.46973L18.7164 11.4697C18.8438 11.6037 18.9181 11.7829 18.9244 11.9716C18.9308 12.1602 18.8688 12.3445 18.7507 12.4875C18.6326 12.6305 18.4672 12.7218 18.2875 12.7432C18.1077 12.7645 17.9269 12.7144 17.781 12.6027L17.7005 12.5297L12.9089 7.52973C12.7743 7.38911 12.6987 7.19848 12.6987 6.99973C12.6987 6.80098 12.7743 6.61036 12.9089 6.46973Z" fill="white"/>
</svg>
