<svg width="23" height="23" viewBox="0 0 23 23" fill="none" xmlns="http://www.w3.org/2000/svg">
<path d="M16.3167 2.36573C16.1948 2.24429 16.0333 2.17063 15.8617 2.15815C15.69 2.14566 15.5196 2.19517 15.3814 2.29768L15.3009 2.36764L6.68067 11.0185C6.55923 11.1405 6.48557 11.3019 6.47309 11.4736C6.4606 11.6452 6.51011 11.8156 6.61263 11.9539L6.68258 12.0344L15.3076 20.6335C15.4363 20.7603 15.6081 20.8339 15.7887 20.8398C15.9693 20.8457 16.1454 20.7833 16.2821 20.6651C16.4188 20.5469 16.5059 20.3816 16.5262 20.202C16.5465 20.0225 16.4984 19.8419 16.3915 19.6962L16.3225 19.6157L8.20633 11.5236L16.3186 3.38156C16.4401 3.25962 16.5137 3.09816 16.5262 2.92652C16.5387 2.75488 16.4892 2.58446 16.3867 2.44623L16.3167 2.36573Z" fill="white"/>
</svg>
