<svg width="23" height="24" viewBox="0 0 23 24" fill="none" xmlns="http://www.w3.org/2000/svg">
<path d="M11.5002 1.75C16.9243 1.75 21.3231 6.34 21.3231 12C21.3231 17.66 16.9243 22.25 11.5002 22.25C6.076 22.25 1.67725 17.66 1.67725 12C1.67725 6.34 6.076 1.75 11.5002 1.75ZM11.5002 3.25C9.27621 3.25 7.14335 4.17187 5.57078 5.81282C3.99821 7.45376 3.11475 9.67936 3.11475 12C3.11475 14.3206 3.99821 16.5462 5.57078 18.1872C7.14335 19.8281 9.27621 20.75 11.5002 20.75C13.7241 20.75 15.857 19.8281 17.4295 18.1872C19.0021 16.5462 19.8856 14.3206 19.8856 12C19.8856 9.67936 19.0021 7.45376 17.4295 5.81282C15.857 4.17187 13.7241 3.25 11.5002 3.25Z" fill="white"/>
<path d="M11.5002 6.75C11.6908 6.75 11.8736 6.82902 12.0084 6.96967C12.1432 7.11032 12.2189 7.30109 12.2189 7.5V8.5C12.2189 8.69891 12.1432 8.88968 12.0084 9.03033C11.8736 9.17098 11.6908 9.25 11.5002 9.25C11.3095 9.25 11.1267 9.17098 10.9919 9.03033C10.8571 8.88968 10.7814 8.69891 10.7814 8.5V7.5C10.7814 7.30109 10.8571 7.11032 10.9919 6.96967C11.1267 6.82902 11.3095 6.75 11.5002 6.75Z" fill="white"/>
<path d="M11.5002 14.75C11.6908 14.75 11.8736 14.829 12.0084 14.9697C12.1432 15.1103 12.2189 15.3011 12.2189 15.5V16.5C12.2189 16.6989 12.1432 16.8897 12.0084 17.0303C11.8736 17.171 11.6908 17.25 11.5002 17.25C11.3095 17.25 11.1267 17.171 10.9919 17.0303C10.8571 16.8897 10.7814 16.6989 10.7814 16.5V15.5C10.7814 15.3011 10.8571 15.1103 10.9919 14.9697C11.1267 14.829 11.3095 14.75 11.5002 14.75Z" fill="white"/>
<path d="M8.63187 10.145C8.72932 9.42542 9.09124 8.77363 9.64106 8.32757C10.1909 7.88151 10.8855 7.67617 11.5778 7.755L11.5184 7.75L11.6477 7.746C12.1478 7.74935 12.6382 7.88954 13.0701 8.15259C13.5019 8.41563 13.8601 8.79231 14.1087 9.245L14.1988 9.422C14.2401 9.51058 14.2643 9.60677 14.2699 9.70509C14.2756 9.80341 14.2626 9.90192 14.2318 9.99501C14.2009 10.0881 14.1528 10.1739 14.0902 10.2476C14.0276 10.3213 13.9517 10.3814 13.8668 10.4245C13.7819 10.4676 13.6897 10.4928 13.5955 10.4987C13.5013 10.5046 13.4068 10.4911 13.3176 10.4589C13.2284 10.4267 13.1462 10.3765 13.0755 10.3112C13.0049 10.2458 12.9473 10.1666 12.906 10.078C12.7832 9.81463 12.5882 9.5952 12.3458 9.44746C12.1034 9.29973 11.8245 9.23031 11.5442 9.248L11.4225 9.246C11.1013 9.20944 10.7791 9.30474 10.524 9.51173C10.269 9.71872 10.1011 10.0211 10.056 10.355L10.0655 10.299L10.0694 10.357C10.1077 10.673 10.3176 10.94 10.607 11.042L10.7067 11.069L12.5754 11.459C13.083 11.5649 13.5397 11.851 13.8678 12.2687C14.196 12.6864 14.3752 13.2099 14.3752 13.75L14.3685 13.855C14.271 14.5746 13.9091 15.2264 13.3593 15.6724C12.8094 16.1185 12.1149 16.3238 11.4225 16.245L11.48 16.25L11.3526 16.254C10.8525 16.2507 10.3621 16.1105 9.93025 15.8474C9.4984 15.5844 9.14025 15.2077 8.89158 14.755L8.8015 14.578C8.71813 14.3991 8.70628 14.193 8.76855 14.005C8.83083 13.817 8.96212 13.6625 9.13356 13.5755C9.30499 13.4885 9.50252 13.4761 9.6827 13.5411C9.86287 13.6061 10.0109 13.7431 10.0943 13.922C10.3454 14.46 10.883 14.788 11.4561 14.752L11.5778 14.754C11.899 14.7906 12.2212 14.6953 12.4763 14.4883C12.7314 14.2813 12.8992 13.9789 12.9444 13.645L12.9348 13.698L12.931 13.643C12.9118 13.4878 12.8512 13.3412 12.7562 13.2201C12.6611 13.099 12.5354 13.0082 12.3933 12.958L12.2937 12.931L10.4249 12.541C9.91736 12.4351 9.46065 12.149 9.13251 11.7313C8.80437 11.3136 8.62509 10.7901 8.62516 10.25L8.63187 10.145Z" fill="white"/>
</svg>
