<svg width="23" height="23" viewBox="0 0 23 23" fill="none" xmlns="http://www.w3.org/2000/svg">
<path d="M19.3515 14.6495C19.2971 14.7809 19.205 14.8931 19.0869 14.9721C18.9687 15.0511 18.8297 15.0933 18.6876 15.0933H4.31258C4.17034 15.0935 4.03127 15.0514 3.91297 14.9724C3.79466 14.8934 3.70245 14.7811 3.64801 14.6497C3.59356 14.5183 3.57932 14.3737 3.6071 14.2342C3.63488 14.0947 3.70343 13.9666 3.80406 13.8661L10.9916 6.67857C11.0583 6.61175 11.1376 6.55873 11.2248 6.52256C11.3121 6.48639 11.4056 6.46777 11.5001 6.46777C11.5945 6.46777 11.6881 6.48639 11.7753 6.52256C11.8626 6.55873 11.9418 6.61175 12.0086 6.67857L19.1961 13.8661C19.2966 13.9666 19.365 14.0948 19.3926 14.2342C19.4203 14.3737 19.406 14.5182 19.3515 14.6495Z" fill="#32BD65"/>
</svg>
