<svg width="23" height="24" viewBox="0 0 23 24" fill="none" xmlns="http://www.w3.org/2000/svg">
<path d="M11.5747 6.25391L11.4999 6.24991C10.9882 6.24991 10.555 6.64591 10.4879 7.17591L10.3461 8.28191C10.2648 8.9186 9.98489 9.50965 9.54963 9.96383C9.11437 10.418 8.54794 10.7101 7.93779 10.7949L6.87787 10.9429C6.44662 11.0029 6.10258 11.3379 6.01346 11.7769L5.99429 11.9209C5.99046 12.5349 6.36996 12.9869 6.87787 13.0569L7.93683 13.2049C8.54716 13.2896 9.1138 13.5815 9.54925 14.0357C9.9847 14.4899 10.2647 15.0811 10.3461 15.7179L10.4879 16.8249C10.5454 17.2729 10.8665 17.6329 11.2872 17.7259L11.4252 17.7459C12.0136 17.7499 12.4467 17.3539 12.5138 16.8239L12.6557 15.7189C12.7368 15.082 13.0166 14.4908 13.4519 14.0364C13.8871 13.582 14.4537 13.2898 15.064 13.2049L16.1239 13.0569C16.5551 12.9969 16.8992 12.6619 16.9883 12.2229L17.0075 12.0789C17.0113 11.4649 16.6318 11.0129 16.1239 10.9429L15.0649 10.7949C14.4546 10.7103 13.8879 10.4183 13.4525 9.96411C13.017 9.50991 12.737 8.91874 12.6557 8.28191L12.5138 7.17591C12.4859 6.95795 12.3942 6.75431 12.2511 6.59285C12.108 6.43139 11.9206 6.32 11.7146 6.27391L11.5756 6.25391H11.5747ZM11.4999 9.54691L11.5555 9.68691C11.9829 10.6926 12.7535 11.4964 13.7175 11.9419L13.8497 11.9999L13.7175 12.0579C12.7533 12.5036 11.9826 13.3078 11.5555 14.3139L11.4999 14.4519L11.4443 14.3139C11.0172 13.3078 10.2465 12.5036 9.28233 12.0579L9.14912 11.9989L9.28329 11.9409C10.2471 11.495 11.0174 10.6908 11.4443 9.68491L11.4999 9.54691Z" fill="white"/>
<path d="M4.55391 4.75191C8.32016 0.821913 14.3835 0.748913 18.2332 4.53591L18.445 4.74991C22.2122 8.68191 22.2802 15.0099 18.651 19.0269L18.445 19.2469C14.6087 23.2499 8.38916 23.2489 4.55391 19.2469C0.717706 15.2439 0.717706 8.75391 4.55391 4.75191ZM17.2298 5.60991C15.6235 4.0414 13.4909 3.19435 11.2917 3.2514C9.09252 3.30845 7.00287 4.26502 5.4733 5.91488C3.94374 7.56474 3.09676 9.77573 3.11499 12.0712C3.13321 14.3666 4.01518 16.5627 5.57073 18.1859C7.12629 19.8091 9.23084 20.7294 11.4306 20.7484C13.6305 20.7674 15.7493 19.8836 17.3304 18.2875C18.9116 16.6915 19.8283 14.511 19.8829 12.2162C19.9376 9.92133 19.1259 7.69599 17.6227 6.01991L17.4282 5.81091L17.2298 5.60991Z" fill="white"/>
</svg>
