<svg width="23" height="24" viewBox="0 0 23 24" fill="none" xmlns="http://www.w3.org/2000/svg">
<path d="M8.68154 9.704V14.295C8.68152 14.5597 8.74862 14.8197 8.87602 15.0486C9.00343 15.2774 9.18662 15.4671 9.40697 15.5982C9.62733 15.7293 9.87701 15.7972 10.1307 15.7951C10.3843 15.793 10.6329 15.7208 10.8512 15.586L14.5715 13.29C14.7864 13.1573 14.9645 12.9685 15.0882 12.7421C15.212 12.5157 15.277 12.2596 15.277 11.999C15.277 11.7384 15.212 11.4823 15.0882 11.2559C14.9645 11.0295 14.7864 10.8407 14.5715 10.708L10.8502 8.413C10.632 8.27869 10.3836 8.20696 10.1302 8.20507C9.87686 8.20319 9.62751 8.27122 9.40745 8.40228C9.18739 8.53334 9.00444 8.72276 8.87713 8.95136C8.74982 9.17996 8.68172 9.4396 8.68154 9.704ZM10.119 14.295V9.704L13.8403 11.999L10.119 14.295Z" fill="white"/>
<path d="M17.25 2.25H5.75C4.79688 2.25 3.88279 2.64509 3.20883 3.34835C2.53488 4.05161 2.15625 5.00544 2.15625 6V18C2.15625 18.9946 2.53488 19.9484 3.20883 20.6517C3.88279 21.3549 4.79688 21.75 5.75 21.75H17.25C18.2031 21.75 19.1172 21.3549 19.7912 20.6517C20.4651 19.9484 20.8437 18.9946 20.8437 18V6C20.8437 5.00544 20.4651 4.05161 19.7912 3.34835C19.1172 2.64509 18.2031 2.25 17.25 2.25ZM5.75 3.75H17.25C17.8219 3.75 18.3703 3.98705 18.7747 4.40901C19.1791 4.83097 19.4062 5.40326 19.4062 6V18C19.4062 18.5967 19.1791 19.169 18.7747 19.591C18.3703 20.0129 17.8219 20.25 17.25 20.25H5.75C5.17813 20.25 4.62968 20.0129 4.2253 19.591C3.82093 19.169 3.59375 18.5967 3.59375 18V6C3.59375 5.40326 3.82093 4.83097 4.2253 4.40901C4.62968 3.98705 5.17813 3.75 5.75 3.75Z" fill="white"/>
</svg>
