<svg width="23" height="24" viewBox="0 0 23 24" fill="none" xmlns="http://www.w3.org/2000/svg">
<path d="M11.8193 3.3325V8.8335C11.8193 9.7995 12.5706 10.5835 13.4964 10.5835H18.7682C19.7869 10.5835 20.5871 9.6395 20.4357 8.5865C20.1799 6.82725 19.3915 5.19952 18.1857 3.94131C16.9799 2.6831 15.42 1.8604 13.7341 1.5935C12.7249 1.4355 11.8193 2.2695 11.8193 3.3325ZM13.5204 3.0775C14.9019 3.29674 16.1802 3.97112 17.1684 5.00215C18.1567 6.03319 18.8032 7.36688 19.0135 8.8085C19.0336 8.9465 18.9177 9.0835 18.7682 9.0835H13.4964C13.4329 9.0835 13.3719 9.05716 13.327 9.01027C13.2821 8.96339 13.2568 8.8998 13.2568 8.8335V3.3325C13.2568 3.1995 13.3536 3.0925 13.4648 3.0765L13.5204 3.0775Z" fill="white"/>
<path d="M18.7682 12.3345H14.8515C13.3565 12.3345 12.609 14.2195 13.666 15.3215L16.4356 18.2125C17.1544 18.9605 18.3561 18.8895 18.9618 18.0365C19.7368 16.9463 20.243 15.6739 20.4357 14.3315C20.5871 13.2785 19.7869 12.3345 18.7682 12.3345ZM14.8515 13.8345H18.7682C18.9177 13.8345 19.0336 13.9715 19.0135 14.1095C18.8558 15.2088 18.4414 16.2507 17.807 17.1435C17.7303 17.2505 17.5578 17.2605 17.4524 17.1515L14.6828 14.2615C14.6493 14.2266 14.6264 14.1821 14.6171 14.1336C14.6078 14.0852 14.6125 14.0349 14.6305 13.9892C14.6486 13.9435 14.6792 13.9044 14.7185 13.8769C14.7578 13.8494 14.8041 13.8346 14.8515 13.8345Z" fill="white"/>
<path d="M8.24186 5.9245C3.77219 6.6175 0.702647 11.0575 1.59294 15.8315C2.20148 19.0995 4.72669 21.7215 7.86044 22.3445C10.1374 22.7965 12.3828 22.2455 14.1644 20.8725C14.9847 20.2405 15.0556 18.9835 14.3369 18.2325L10.2122 13.9295C10.19 13.9062 10.1723 13.8786 10.1603 13.8483C10.1483 13.8179 10.1422 13.7853 10.1422 13.7525V7.6625C10.1422 6.6045 9.24715 5.7695 8.2409 5.9245H8.24186ZM8.45269 7.4085C8.57727 7.3885 8.70473 7.5085 8.70473 7.6625V13.7525C8.70473 14.2165 8.88106 14.6615 9.19636 14.9895L13.321 19.2935C13.4255 19.4035 13.4149 19.5855 13.3095 19.6665C11.8481 20.7935 10.009 21.2435 8.12877 20.8705C5.57194 20.3625 3.50002 18.2105 3.00361 15.5455C2.27144 11.6155 4.78898 7.9755 8.45269 7.4085Z" fill="white"/>
</svg>
