<svg width="23" height="24" viewBox="0 0 23 24" fill="none" xmlns="http://www.w3.org/2000/svg">
<path d="M15.7359 6.52034C15.8643 6.38738 16.0361 6.30984 16.2169 6.3032C16.3977 6.29656 16.5742 6.3613 16.7113 6.4845C16.8483 6.6077 16.9358 6.7803 16.9563 6.96786C16.9768 7.15541 16.9287 7.34413 16.8217 7.49634L16.7518 7.58034L7.26426 17.4803C7.13585 17.6133 6.96411 17.6908 6.78331 17.6975C6.60252 17.7041 6.42598 17.6394 6.28892 17.5162C6.15186 17.393 6.06436 17.2204 6.04389 17.0328C6.02341 16.8453 6.07147 16.6565 6.17847 16.5043L6.24843 16.4203L15.7359 6.52034Z" fill="white"/>
<path d="M6.75635 9.20034C6.93003 9.20035 7.09784 9.26598 7.22874 9.38511C7.35964 9.50423 7.44477 9.66878 7.46839 9.84834L7.4751 9.95034V16.9503C7.47504 17.1404 7.40586 17.3233 7.28154 17.4621C7.15722 17.601 6.98702 17.6854 6.80534 17.6984C6.62366 17.7113 6.44403 17.6518 6.30277 17.5319C6.1615 17.412 6.06913 17.2406 6.04431 17.0523L6.0376 16.9503V9.95034C6.0376 9.75143 6.11332 9.56066 6.24811 9.42001C6.38291 9.27936 6.56572 9.20034 6.75635 9.20034Z" fill="white"/>
<path d="M13.4647 16.2003C13.6468 16.2004 13.8221 16.2726 13.9551 16.4023C14.0882 16.532 14.1691 16.7096 14.1815 16.8992C14.194 17.0888 14.1369 17.2762 14.022 17.4236C13.9071 17.571 13.7428 17.6674 13.5624 17.6933L13.4647 17.7003H6.75635C6.57424 17.7003 6.39895 17.6281 6.26588 17.4984C6.13282 17.3686 6.0519 17.191 6.03949 17.0015C6.02708 16.8119 6.08409 16.6244 6.19901 16.477C6.31393 16.3296 6.47819 16.2332 6.6586 16.2073L6.75635 16.2003H13.4647Z" fill="white"/>
</svg>
