<svg width="23" height="24" viewBox="0 0 23 24" fill="none" xmlns="http://www.w3.org/2000/svg">
<path d="M7.66667 17.25C7.84877 17.2501 8.02407 17.3222 8.15713 17.452C8.2902 17.5817 8.37111 17.7593 8.38352 17.9489C8.39594 18.1385 8.33892 18.3259 8.224 18.4733C8.10908 18.6207 7.94482 18.7171 7.76442 18.743L7.66667 18.75H2.875C2.69289 18.7499 2.5176 18.6778 2.38453 18.548C2.25147 18.4183 2.17055 18.2407 2.15814 18.0511C2.14573 17.8615 2.20274 17.6741 2.31766 17.5267C2.43259 17.3793 2.59684 17.2829 2.77725 17.257L2.875 17.25H7.66667Z" fill="white"/>
<path d="M7.66667 20.25C7.84877 20.2501 8.02407 20.3222 8.15713 20.452C8.2902 20.5817 8.37111 20.7593 8.38352 20.9489C8.39594 21.1385 8.33892 21.3259 8.224 21.4733C8.10908 21.6207 7.94482 21.7171 7.76442 21.743L7.66667 21.75H4.79167C4.60956 21.7499 4.43427 21.6778 4.3012 21.548C4.16813 21.4183 4.08722 21.2407 4.07481 21.0511C4.0624 20.8615 4.11941 20.6741 4.23433 20.5267C4.34925 20.3793 4.51351 20.2829 4.69392 20.257L4.79167 20.25H7.66667Z" fill="white"/>
<path d="M11.5 2.25C16.6606 2.25 20.8437 6.615 20.8437 12C20.8437 17.385 16.6606 21.75 11.5 21.75C11.3094 21.75 11.1266 21.671 10.9918 21.5303C10.857 21.3897 10.7812 21.1989 10.7812 21C10.7812 20.8011 10.857 20.6103 10.9918 20.4697C11.1266 20.329 11.3094 20.25 11.5 20.25C13.0636 20.25 14.5921 19.7662 15.8922 18.8598C17.1923 17.9534 18.2057 16.6651 18.8041 15.1578C19.4026 13.6505 19.5594 11.9919 19.2545 10.3916C18.9497 8.79135 18.197 7.32133 17.0916 6.16743C15.9862 5.01353 14.5777 4.22755 13.0442 3.90889C11.5107 3.59022 9.92113 3.75317 8.4764 4.37713C7.03167 5.0011 5.79669 6.05805 4.92759 7.41436C4.0585 8.77067 3.59432 10.3654 3.59375 11.997C3.59567 12.613 3.66658 13.227 3.80267 13.827C3.82444 13.9229 3.8279 14.0223 3.81286 14.1195C3.79782 14.2168 3.76456 14.31 3.715 14.3939C3.66543 14.4777 3.60052 14.5506 3.52397 14.6082C3.44743 14.6659 3.36075 14.7073 3.26887 14.73C3.177 14.7527 3.08175 14.7563 2.98854 14.7406C2.89533 14.7249 2.80599 14.6902 2.72564 14.6385C2.64528 14.5868 2.57547 14.5191 2.5202 14.4392C2.46493 14.3593 2.42527 14.2689 2.4035 14.173C2.2417 13.4609 2.15874 12.7318 2.15625 12C2.15625 6.615 6.33937 2.25 11.5 2.25Z" fill="white"/>
<path d="M11.0208 6.25C11.1945 6.25001 11.3623 6.31564 11.4932 6.43477C11.6241 6.55389 11.7093 6.71845 11.7329 6.898L11.7396 7V11.75H15.3333C15.507 11.75 15.6748 11.8156 15.8057 11.9348C15.9366 12.0539 16.0218 12.2184 16.0454 12.398L16.0521 12.5C16.0521 12.6812 15.9892 12.8563 15.875 12.9929C15.7609 13.1295 15.6032 13.2184 15.4311 13.243L15.3333 13.25H11.0208C10.8471 13.25 10.6793 13.1844 10.5484 13.0652C10.4175 12.9461 10.3324 12.7816 10.3088 12.602L10.3021 12.5V7C10.3021 6.80109 10.3778 6.61032 10.5126 6.46967C10.6474 6.32902 10.8302 6.25 11.0208 6.25Z" fill="white"/>
</svg>
