<svg width="23" height="23" viewBox="0 0 23 23" fill="none" xmlns="http://www.w3.org/2000/svg">
<g clip-path="url(#clip0_40000012_14176)">
<path d="M10.9807 6.67973C11.1025 6.55776 11.264 6.48359 11.4359 6.47075C11.6077 6.45791 11.7785 6.50725 11.917 6.60978L11.9975 6.67878L20.6331 15.3038C20.762 15.4319 20.8376 15.604 20.8447 15.7856C20.8518 15.9672 20.7898 16.1448 20.6713 16.2825C20.5527 16.4203 20.3864 16.508 20.2057 16.528C20.0251 16.5481 19.8436 16.4989 19.6977 16.3905L19.6172 16.3215L11.4896 8.20444L3.38403 16.3206C3.26227 16.4425 3.10075 16.5167 2.92888 16.5296C2.75702 16.5424 2.58626 16.4931 2.44773 16.3905L2.36723 16.3215C2.24526 16.1998 2.17109 16.0382 2.15825 15.8664C2.14541 15.6945 2.19475 15.5238 2.29728 15.3852L2.36628 15.3047L10.9807 6.67973Z" fill="white"/>
</g>
<defs>
<clipPath id="clip0_40000012_14176">
<rect width="23" height="23" fill="white"/>
</clipPath>
</defs>
</svg>
