<svg width="23" height="24" viewBox="0 0 23 24" fill="none" xmlns="http://www.w3.org/2000/svg">
<path d="M11.5 4.25C11.6737 4.25001 11.8415 4.31564 11.9724 4.43477C12.1033 4.55389 12.1884 4.71845 12.212 4.898L12.2187 5V19C12.2187 19.19 12.1495 19.3729 12.0252 19.5118C11.9009 19.6506 11.7307 19.7351 11.549 19.748C11.3673 19.761 11.1877 19.7015 11.0464 19.5816C10.9051 19.4617 10.8128 19.2903 10.7879 19.102L10.7803 19V5C10.7803 4.80109 10.856 4.61032 10.9908 4.46967C11.1256 4.32902 11.3094 4.25 11.5 4.25Z" fill="white"/>
<path d="M6.19945 13.469C6.32115 13.342 6.48249 13.2648 6.65413 13.2514C6.82578 13.238 6.99633 13.2893 7.13478 13.396L7.21528 13.469L11.5 17.939L15.7837 13.469C15.9055 13.3417 16.067 13.2643 16.2389 13.2509C16.4107 13.2375 16.5815 13.289 16.72 13.396L16.8005 13.469C16.9223 13.596 16.9963 13.7643 17.0091 13.9435C17.0219 14.1226 16.9728 14.3005 16.8705 14.445L16.8005 14.529L12.0089 19.53C11.8871 19.6573 11.7256 19.7347 11.5537 19.7481C11.3819 19.7615 11.2111 19.71 11.0726 19.603L10.9921 19.53L6.19945 14.53C6.13266 14.4603 6.07967 14.3776 6.04353 14.2866C6.00738 14.1956 5.98877 14.098 5.98877 13.9995C5.98877 13.901 6.00738 13.8034 6.04353 13.7124C6.07967 13.6214 6.13266 13.5387 6.19945 13.469Z" fill="white"/>
</svg>
