<svg width="23" height="23" viewBox="0 0 23 23" fill="none" xmlns="http://www.w3.org/2000/svg">
<path d="M10.5709 15.3036C10.6378 15.3703 10.6908 15.4496 10.7269 15.5369C10.7631 15.6241 10.7817 15.7176 10.7817 15.8121C10.7817 15.9065 10.7631 16.0001 10.7269 16.0873C10.6908 16.1746 10.6378 16.2539 10.5709 16.3206L7.69593 19.1956C7.62917 19.2624 7.5499 19.3154 7.46265 19.3516C7.37539 19.3878 7.28187 19.4064 7.18741 19.4064C7.09296 19.4064 6.99943 19.3878 6.91217 19.3516C6.82492 19.3154 6.74565 19.2624 6.6789 19.1956L3.8039 16.3206C3.73712 16.2538 3.68414 16.1745 3.648 16.0873C3.61186 16 3.59326 15.9065 3.59326 15.8121C3.59326 15.7176 3.61186 15.6241 3.648 15.5369C3.68414 15.4496 3.73712 15.3704 3.8039 15.3036C3.93876 15.1687 4.12168 15.0929 4.31241 15.0929C4.40685 15.0929 4.50037 15.1115 4.58762 15.1477C4.67487 15.1838 4.75415 15.2368 4.82093 15.3036L6.46866 16.9522V4.31209C6.46866 4.12146 6.54439 3.93865 6.67918 3.80386C6.81397 3.66906 6.99679 3.59334 7.18741 3.59334C7.37804 3.59334 7.56085 3.66906 7.69564 3.80386C7.83044 3.93865 7.90616 4.12146 7.90616 4.31209V16.9522L9.5539 15.3036C9.62065 15.2367 9.69992 15.1837 9.78717 15.1476C9.87443 15.1114 9.96796 15.0928 10.0624 15.0928C10.1569 15.0928 10.2504 15.1114 10.3376 15.1476C10.4249 15.1837 10.5042 15.2367 10.5709 15.3036ZM19.1959 6.67857L16.3209 3.80357C16.2542 3.73675 16.1749 3.68373 16.0876 3.64756C16.0004 3.61139 15.9069 3.59277 15.8124 3.59277C15.718 3.59277 15.6244 3.61139 15.5372 3.64756C15.4499 3.68373 15.3706 3.73675 15.3039 3.80357L12.4289 6.67857C12.294 6.81344 12.2183 6.99636 12.2183 7.18709C12.2183 7.37782 12.294 7.56074 12.4289 7.6956C12.5638 7.83047 12.7467 7.90624 12.9374 7.90624C13.1281 7.90624 13.3111 7.83047 13.4459 7.6956L15.0937 6.04697V18.6871C15.0937 18.8777 15.1694 19.0605 15.3042 19.1953C15.439 19.3301 15.6218 19.4058 15.8124 19.4058C16.003 19.4058 16.1859 19.3301 16.3206 19.1953C16.4554 19.0605 16.5312 18.8777 16.5312 18.6871V6.04697L18.1789 7.6956C18.3138 7.83047 18.4967 7.90624 18.6874 7.90624C18.8781 7.90624 19.0611 7.83047 19.1959 7.6956C19.3308 7.56074 19.4066 7.37782 19.4066 7.18709C19.4066 6.99636 19.3308 6.81344 19.1959 6.67857Z" fill="white"/>
</svg>
