<svg width="23" height="24" viewBox="0 0 23 24" fill="none" xmlns="http://www.w3.org/2000/svg">
<path d="M6.71408 16.25L11.4147 16.287C11.597 16.2884 11.772 16.362 11.9042 16.493C12.0365 16.624 12.1161 16.8025 12.1269 16.9924C12.1377 17.1823 12.079 17.3694 11.9626 17.5158C11.8462 17.6622 11.6809 17.757 11.5 17.781L11.4022 17.787L6.70162 17.75C6.51924 17.7488 6.3441 17.6754 6.2117 17.5445C6.07929 17.4136 5.99952 17.2351 5.98855 17.0451C5.97759 16.8551 6.03624 16.6679 6.15263 16.5214C6.26902 16.3749 6.43444 16.28 6.61538 16.256L6.71408 16.25Z" fill="white"/>
<path d="M16.2917 12.25C16.4738 12.2501 16.6491 12.3222 16.7821 12.452C16.9152 12.5817 16.9961 12.7593 17.0085 12.9489C17.0209 13.1385 16.9639 13.3259 16.849 13.4733C16.7341 13.6207 16.5698 13.7171 16.3894 13.743L16.2917 13.75H11.5C11.3179 13.7499 11.1426 13.6778 11.0095 13.548C10.8765 13.4183 10.7956 13.2407 10.7831 13.0511C10.7707 12.8615 10.8277 12.6741 10.9427 12.5267C11.0576 12.3793 11.2218 12.2829 11.4022 12.257L11.5 12.25H16.2917Z" fill="white"/>
<path d="M20.125 8.25C20.3071 8.25006 20.4824 8.32224 20.6155 8.45197C20.7485 8.5817 20.8294 8.7593 20.8419 8.94888C20.8543 9.13846 20.7973 9.32589 20.6823 9.4733C20.5674 9.62071 20.4032 9.7171 20.2227 9.743L20.125 9.75H2.875C2.69289 9.74994 2.5176 9.67776 2.38453 9.54803C2.25147 9.4183 2.17055 9.2407 2.15814 9.05112C2.14573 8.86154 2.20274 8.67411 2.31766 8.5267C2.43259 8.37929 2.59684 8.2829 2.77725 8.257L2.875 8.25H20.125Z" fill="white"/>
<path d="M7.66667 1.75C7.84035 1.75001 8.00816 1.81564 8.13906 1.93477C8.26996 2.05389 8.35509 2.21845 8.37871 2.398L8.38542 2.5V5.5C8.38536 5.69002 8.31618 5.87294 8.19186 6.01179C8.06754 6.15064 7.89734 6.23507 7.71566 6.24803C7.53397 6.26098 7.35435 6.20148 7.21309 6.08157C7.07182 5.96165 6.97945 5.79025 6.95462 5.602L6.94792 5.5V2.5C6.94792 2.30109 7.02364 2.11032 7.15843 1.96967C7.29323 1.82902 7.47604 1.75 7.66667 1.75Z" fill="white"/>
<path d="M15.3333 1.75C15.507 1.75001 15.6748 1.81564 15.8057 1.93477C15.9366 2.05389 16.0218 2.21845 16.0454 2.398L16.0521 2.5V5.5C16.052 5.69002 15.9828 5.87294 15.8585 6.01179C15.7342 6.15064 15.564 6.23507 15.3823 6.24803C15.2006 6.26098 15.021 6.20148 14.8798 6.08157C14.7385 5.96165 14.6461 5.79025 14.6213 5.602L14.6146 5.5V2.5C14.6146 2.30109 14.6903 2.11032 14.8251 1.96967C14.9599 1.82902 15.1427 1.75 15.3333 1.75Z" fill="white"/>
<path d="M17.25 3.25H5.75C4.79688 3.25 3.88279 3.64509 3.20883 4.34835C2.53488 5.05161 2.15625 6.00544 2.15625 7V18C2.15625 18.9946 2.53488 19.9484 3.20883 20.6517C3.88279 21.3549 4.79688 21.75 5.75 21.75H17.25C18.2031 21.75 19.1172 21.3549 19.7912 20.6517C20.4651 19.9484 20.8437 18.9946 20.8437 18V7C20.8437 6.00544 20.4651 5.05161 19.7912 4.34835C19.1172 3.64509 18.2031 3.25 17.25 3.25ZM5.75 4.75H17.25C17.8219 4.75 18.3703 4.98705 18.7747 5.40901C19.1791 5.83097 19.4062 6.40326 19.4062 7V18C19.4062 18.5967 19.1791 19.169 18.7747 19.591C18.3703 20.0129 17.8219 20.25 17.25 20.25H5.75C5.17813 20.25 4.62968 20.0129 4.2253 19.591C3.82093 19.169 3.59375 18.5967 3.59375 18V7C3.59375 6.40326 3.82093 5.83097 4.2253 5.40901C4.62968 4.98705 5.17813 4.75 5.75 4.75Z" fill="white"/>
</svg>
