<svg width="23" height="23" viewBox="0 0 23 23" fill="none" xmlns="http://www.w3.org/2000/svg">
<path d="M15.8126 10.7812C15.1518 10.7812 14.4976 10.9114 13.8872 11.1642C13.2768 11.4171 12.7221 11.7877 12.2549 12.2549C11.7877 12.7221 11.4171 13.2767 11.1643 13.8871C10.9114 14.4975 10.7813 15.1518 10.7813 15.8125C10.7813 16.4732 10.9114 17.1275 11.1643 17.7379C11.4171 18.3483 11.7877 18.9029 12.2549 19.3701C12.7221 19.8373 13.2768 20.2079 13.8872 20.4608C14.4976 20.7136 15.1518 20.8437 15.8126 20.8437C17.1469 20.8437 18.4266 20.3137 19.3702 19.3701C20.3137 18.4266 20.8438 17.1469 20.8438 15.8125C20.8438 14.4781 20.3137 13.1984 19.3702 12.2549C18.4266 11.3113 17.1469 10.7812 15.8126 10.7812ZM15.8126 12.2187C16.7657 12.2187 17.6798 12.5974 18.3537 13.2713C19.0277 13.9453 19.4063 14.8594 19.4063 15.8125C19.4063 16.7656 19.0277 17.6797 18.3537 18.3537C17.6798 19.0276 16.7657 19.4062 15.8126 19.4062C14.8594 19.4062 13.9453 19.0276 13.2714 18.3537C12.5974 17.6797 12.2188 16.7656 12.2188 15.8125C12.2188 14.8594 12.5974 13.9453 13.2714 13.2713C13.9453 12.5974 14.8594 12.2187 15.8126 12.2187Z" fill="white"/>
<path d="M12.9088 7.15875C13.0372 7.03133 13.209 6.95703 13.3898 6.95066C13.5705 6.94429 13.7471 7.00633 13.8841 7.1244C14.0212 7.24247 14.1087 7.40788 14.1292 7.58762C14.1497 7.76737 14.1016 7.94822 13.9946 8.09408L13.9246 8.17458L6.09409 16.0061C5.72903 16.3683 5.51826 16.8578 5.50592 17.3719C5.49358 17.886 5.68063 18.385 6.02789 18.7643C6.37515 19.1437 6.85571 19.374 7.36893 19.407C7.88216 19.44 8.38826 19.2732 8.78126 18.9415L8.91064 18.8226L11.1771 16.5571C11.3055 16.4297 11.4773 16.3554 11.658 16.349C11.8388 16.3427 12.0154 16.4047 12.1524 16.5228C12.2895 16.6408 12.377 16.8063 12.3975 16.986C12.4179 17.1657 12.3699 17.3466 12.2629 17.4925L12.1929 17.573L9.92743 19.8394C9.29601 20.4649 8.44644 20.8209 7.55772 20.8324C6.669 20.8438 5.81054 20.5098 5.16323 19.9008C4.51591 19.2917 4.1303 18.4552 4.08763 17.5674C4.04497 16.6796 4.34859 15.81 4.93451 15.1417L5.07826 14.9893L12.9078 7.15875H12.9088Z" fill="white"/>
<path d="M14.423 2.15625C15.4802 2.15626 16.5147 2.46306 17.401 3.03945C18.2873 3.61584 18.9873 4.43704 19.4161 5.40343C19.8448 6.36982 19.9839 7.43986 19.8165 8.48376C19.6491 9.52765 19.1823 10.5005 18.4729 11.2844L18.286 11.4808L17.573 12.1929C17.4446 12.3203 17.2729 12.3946 17.0921 12.401C16.9113 12.4073 16.7347 12.3453 16.5977 12.2272C16.4606 12.1092 16.3731 11.9437 16.3526 11.764C16.3322 11.5843 16.3802 11.4034 16.4872 11.2575L16.5572 11.1761L17.2692 10.464C18.0038 9.7219 18.4212 8.72334 18.4333 7.67921C18.4454 6.63508 18.0512 5.62711 17.3341 4.86815C16.6169 4.10919 15.6328 3.65864 14.5897 3.61165C13.5466 3.56466 12.526 3.92489 11.7435 4.61629L11.5777 4.7725L3.38393 12.9662C3.25584 13.0952 3.08366 13.1708 2.90206 13.1779C2.72046 13.185 2.54291 13.123 2.40516 13.0045C2.26741 12.8859 2.17969 12.7196 2.15966 12.5389C2.13962 12.3583 2.18876 12.1768 2.29718 12.0309L2.36714 11.9504L10.5609 3.75667C11.5851 2.73219 12.9743 2.15651 14.423 2.15625Z" fill="white"/>
<path d="M17.2501 15.0937C17.4322 15.0938 17.6075 15.163 17.7405 15.2873C17.8736 15.4116 17.9545 15.5818 17.9669 15.7635C17.9793 15.9452 17.9223 16.1248 17.8074 16.2661C17.6925 16.4073 17.5282 16.4997 17.3478 16.5245L17.2501 16.5312H14.3751C14.1929 16.5312 14.0177 16.462 13.8846 16.3377C13.7515 16.2134 13.6706 16.0432 13.6582 15.8615C13.6458 15.6798 13.7028 15.5002 13.8177 15.3589C13.9326 15.2177 14.0969 15.1253 14.2773 15.1005L14.3751 15.0937H17.2501Z" fill="white"/>
<path d="M15.8126 13.6562C15.9862 13.6563 16.154 13.7192 16.2849 13.8333C16.4158 13.9475 16.501 14.1052 16.5246 14.2772L16.5313 14.375V17.25C16.5312 17.4321 16.4621 17.6074 16.3377 17.7405C16.2134 17.8735 16.0432 17.9544 15.8615 17.9669C15.6799 17.9793 15.5002 17.9223 15.359 17.8073C15.2177 17.6924 15.1253 17.5282 15.1005 17.3477L15.0938 17.25V14.375C15.0938 14.1844 15.1695 14.0016 15.3043 13.8668C15.4391 13.732 15.6219 13.6562 15.8126 13.6562Z" fill="white"/>
</svg>
