<svg width="23" height="24" viewBox="0 0 23 24" fill="none" xmlns="http://www.w3.org/2000/svg">
<path d="M11.5 7.25C11.6737 7.25001 11.8415 7.31564 11.9724 7.43477C12.1033 7.55389 12.1884 7.71845 12.212 7.898L12.2187 8V16C12.2187 16.19 12.1495 16.3729 12.0252 16.5118C11.9009 16.6506 11.7307 16.7351 11.549 16.748C11.3673 16.761 11.1877 16.7015 11.0464 16.5816C10.9052 16.4617 10.8128 16.2902 10.788 16.102L10.7812 16V8C10.7812 7.80109 10.857 7.61032 10.9918 7.46967C11.1266 7.32902 11.3094 7.25 11.5 7.25Z" fill="white"/>
<path d="M15.3333 11.25C15.5154 11.2501 15.6907 11.3222 15.8238 11.452C15.9569 11.5817 16.0378 11.7593 16.0502 11.9489C16.0626 12.1385 16.0056 12.3259 15.8907 12.4733C15.7757 12.6207 15.6115 12.7171 15.4311 12.743L15.3333 12.75H7.66667C7.48456 12.7499 7.30926 12.6778 7.1762 12.548C7.04313 12.4183 6.96222 12.2407 6.94981 12.0511C6.9374 11.8615 6.99441 11.6741 7.10933 11.5267C7.22425 11.3793 7.38851 11.2829 7.56892 11.257L7.66667 11.25H15.3333Z" fill="white"/>
<path d="M11.5 2.25L11.2355 2.254C6.18029 2.407 2.15625 6.722 2.15625 12L2.16008 12.276C2.30671 17.551 6.44192 21.75 11.5 21.75L11.7645 21.746C16.8197 21.594 20.8437 17.278 20.8437 12L20.8399 11.724C20.6942 6.449 16.5581 2.25 11.5 2.25ZM11.2662 3.754L11.5 3.75C13.5565 3.74984 15.5321 4.58581 17.0076 6.08052C18.4832 7.57523 19.3426 9.61105 19.4034 11.756L19.4062 12.011C19.4062 16.466 16.0013 20.118 11.7338 20.247L11.4895 20.25C7.22008 20.25 3.72025 16.697 3.59758 12.244L3.59375 11.989C3.59375 7.534 6.99871 3.882 11.2662 3.754Z" fill="white"/>
</svg>
