<svg width="23" height="24" viewBox="0 0 23 24" fill="none" xmlns="http://www.w3.org/2000/svg">
<path d="M11.5 2.25C16.558 2.25 20.6942 6.4488 20.84 11.7236L20.8437 12C20.8437 17.2779 16.8199 21.5939 11.7649 21.7461L11.5 21.75C6.44203 21.75 2.3068 17.5512 2.15999 12.2764L2.15625 12C2.15625 6.72212 6.1801 2.40709 11.2351 2.25391L11.5 2.25Z" fill="#292A2E"/>
<path d="M13.7042 8.63965C13.8326 8.5067 14.0044 8.42916 14.1851 8.42252C14.3659 8.41587 14.5425 8.48061 14.6795 8.60381C14.8166 8.72702 14.9041 8.89962 14.9246 9.08718C14.945 9.27473 14.897 9.46345 14.79 9.61565L14.72 9.69965L9.29586 15.3597C9.16744 15.4926 8.9957 15.5701 8.81491 15.5768C8.63412 15.5834 8.45757 15.5187 8.32051 15.3955C8.18345 15.2723 8.09595 15.0997 8.07548 14.9121C8.05501 14.7246 8.10307 14.5359 8.21007 14.3837L8.28003 14.2997L13.7042 8.63965Z" fill="#797B86"/>
<path d="M8.28003 8.63965C8.40172 8.51264 8.56306 8.43541 8.73471 8.42201C8.90635 8.40862 9.07691 8.45994 9.21536 8.56665L9.29586 8.63965L14.72 14.2997C14.8474 14.4337 14.9218 14.6129 14.9281 14.8015C14.9345 14.9902 14.8724 15.1744 14.7544 15.3174C14.6363 15.4604 14.4709 15.5517 14.2912 15.5731C14.1114 15.5945 13.9306 15.5443 13.7847 15.4327L13.7042 15.3597L8.28003 9.69965C8.14543 9.55903 8.06982 9.36841 8.06982 9.16965C8.06982 8.9709 8.14543 8.78028 8.28003 8.63965Z" fill="#797B86"/>
</svg>
