<svg width="23" height="24" viewBox="0 0 23 24" fill="none" xmlns="http://www.w3.org/2000/svg">
<path d="M10.3022 16.9998V10.9998C10.3022 10.5356 10.1256 10.0905 9.81104 9.76234C9.49653 9.43415 9.06995 9.24977 8.62516 9.24977L4.79183 9.24977C3.86608 9.24977 3.11475 10.0338 3.11475 10.9998L3.11475 16.9998C3.11475 17.4639 3.29144 17.909 3.60595 18.2372C3.92047 18.5654 4.34704 18.7498 4.79183 18.7498H8.62516C9.06995 18.7498 9.49653 18.5654 9.81104 18.2372C10.1256 17.909 10.3022 17.4639 10.3022 16.9998ZM8.86475 10.9998L8.86475 16.9998C8.86475 17.0661 8.8395 17.1297 8.79457 17.1765C8.74964 17.2234 8.6887 17.2498 8.62516 17.2498H4.79183C4.72829 17.2498 4.66735 17.2234 4.62242 17.1765C4.57749 17.1297 4.55225 17.0661 4.55225 16.9998L4.55225 10.9998C4.55225 10.9335 4.57749 10.8699 4.62242 10.823C4.66735 10.7761 4.72829 10.7498 4.79183 10.7498H8.62516C8.6887 10.7498 8.74964 10.7761 8.79457 10.823C8.83951 10.8699 8.86475 10.9335 8.86475 10.9998Z" fill="white"/>
<path d="M7.42725 20.9998C7.42719 21.1898 7.35801 21.3727 7.23369 21.5116C7.10937 21.6504 6.93917 21.7348 6.75749 21.7478C6.5758 21.7607 6.39618 21.7013 6.25492 21.5813C6.11365 21.4614 6.02128 21.29 5.99645 21.1018L5.98975 20.9998L5.98975 17.9998C5.9898 17.8097 6.05898 17.6268 6.1833 17.488C6.30763 17.3491 6.47782 17.2647 6.65951 17.2517C6.84119 17.2388 7.02081 17.2983 7.16207 17.4182C7.30334 17.5381 7.39572 17.7095 7.42054 17.8978L7.42725 17.9998V20.9998Z" fill="white"/>
<path d="M7.42725 9.99977C7.42719 10.1898 7.35801 10.3727 7.23369 10.5116C7.10937 10.6504 6.93917 10.7348 6.75749 10.7478C6.5758 10.7607 6.39618 10.7013 6.25492 10.5813C6.11365 10.4614 6.02128 10.29 5.99645 10.1018L5.98975 9.99977L5.98975 2.99977C5.9898 2.80975 6.05898 2.62683 6.1833 2.48798C6.30763 2.34913 6.47782 2.2647 6.65951 2.25175C6.84119 2.23879 7.02081 2.29829 7.16207 2.4182C7.30334 2.53812 7.39572 2.70952 7.42054 2.89777L7.42725 2.99977L7.42725 9.99977Z" fill="white"/>
<path d="M19.8856 12.9998V7.99977C19.8856 7.53564 19.7089 7.09052 19.3944 6.76234C19.0799 6.43415 18.6533 6.24977 18.2085 6.24977L14.3752 6.24977C13.4494 6.24977 12.6981 7.03377 12.6981 7.99977V12.9998C12.6981 13.4639 12.8748 13.909 13.1893 14.2372C13.5038 14.5654 13.9304 14.7498 14.3752 14.7498H18.2085C18.6533 14.7498 19.0799 14.5654 19.3944 14.2372C19.7089 13.909 19.8856 13.4639 19.8856 12.9998ZM18.4481 7.99977V12.9998C18.4481 13.0661 18.4228 13.1297 18.3779 13.1765C18.333 13.2234 18.272 13.2498 18.2085 13.2498H14.3752C14.3116 13.2498 14.2507 13.2234 14.2058 13.1765C14.1608 13.1297 14.1356 13.0661 14.1356 12.9998V7.99977C14.1356 7.93347 14.1608 7.86988 14.2058 7.82299C14.2507 7.77611 14.3116 7.74977 14.3752 7.74977L18.2085 7.74977C18.272 7.74977 18.333 7.77611 18.3779 7.823C18.4228 7.86988 18.4481 7.93347 18.4481 7.99977Z" fill="white"/>
<path d="M17.0106 6.99977C17.0105 7.1898 16.9413 7.37271 16.817 7.51156C16.6927 7.65041 16.5225 7.73485 16.3408 7.7478C16.1591 7.76075 15.9795 7.70126 15.8383 7.58134C15.697 7.46142 15.6046 7.29002 15.5798 7.10177L15.5731 6.99977L15.5731 2.99977C15.5731 2.80975 15.6423 2.62683 15.7666 2.48798C15.891 2.34913 16.0612 2.2647 16.2428 2.25175C16.4245 2.23879 16.6041 2.29829 16.7454 2.4182C16.8867 2.53812 16.9791 2.70952 17.0039 2.89777L17.0106 2.99977L17.0106 6.99977Z" fill="white"/>
<path d="M17.0106 20.9998C17.0105 21.1898 16.9413 21.3727 16.817 21.5116C16.6927 21.6504 16.5225 21.7348 16.3408 21.7478C16.1591 21.7607 15.9795 21.7013 15.8383 21.5813C15.697 21.4614 15.6046 21.29 15.5798 21.1018L15.5731 20.9998V13.9998C15.5731 13.8097 15.6423 13.6268 15.7666 13.488C15.891 13.3491 16.0612 13.2647 16.2428 13.2517C16.4245 13.2388 16.6041 13.2983 16.7454 13.4182C16.8867 13.5381 16.979 13.7095 17.0039 13.8978L17.0106 13.9998V20.9998Z" fill="white"/>
</svg>
