<svg width="23" height="23" viewBox="0 0 23 23" fill="none" xmlns="http://www.w3.org/2000/svg">
<g clip-path="url(#clip0_40000020_3248)">
<path d="M11.4999 2.39551L11.3053 2.40126C10.3654 2.45244 9.48076 2.86147 8.83295 3.54438C8.18514 4.2273 7.82332 5.1323 7.82178 6.07359V11.0061C7.82224 11.949 8.18457 12.8557 8.834 13.5392C9.48344 14.2227 10.3704 14.6308 11.312 14.6794L11.5018 14.6842C13.5334 14.6842 15.1789 13.0359 15.1779 11.0061V6.07359C15.1774 5.09826 14.7898 4.16302 14.1001 3.47335C13.4104 2.78369 12.4752 2.39602 11.4999 2.39551ZM11.3676 3.83684L11.5094 3.83205L11.4999 3.83301C11.7942 3.83288 12.0857 3.89074 12.3577 4.00327C12.6297 4.1158 12.8769 4.28081 13.0852 4.48886C13.2934 4.69692 13.4586 4.94396 13.5714 5.21586C13.6841 5.48777 13.7422 5.77923 13.7424 6.07359V11.0061C13.7424 12.1916 12.8214 13.1624 11.6542 13.2419L11.5008 13.2467C10.9067 13.2465 10.3369 13.0103 9.91677 12.5902C9.49663 12.17 9.26049 11.6003 9.26024 11.0061V6.07359C9.26068 5.50237 9.47909 4.95284 9.8709 4.53717C10.2627 4.1215 10.7974 3.87102 11.3676 3.83684Z" fill="white"/>
<path d="M18.2082 10.4453C18.3988 10.4453 18.5816 10.521 18.7164 10.6558C18.8512 10.7906 18.9269 10.9734 18.9269 11.1641C18.9269 13.1338 18.1444 15.023 16.7516 16.4158C15.3587 17.8087 13.4696 18.5911 11.4998 18.5911C9.53005 18.5911 7.64094 17.8087 6.2481 16.4158C4.85525 15.023 4.07275 13.1338 4.07275 11.1641C4.07275 10.9734 4.14848 10.7906 4.28327 10.6558C4.41806 10.521 4.60088 10.4453 4.7915 10.4453C4.98213 10.4453 5.16495 10.521 5.29974 10.6558C5.43453 10.7906 5.51025 10.9734 5.51025 11.1641C5.51025 12.7526 6.1413 14.2761 7.26456 15.3993C8.38783 16.5226 9.9113 17.1536 11.4998 17.1536C13.0884 17.1536 14.6118 16.5226 15.7351 15.3993C16.8584 14.2761 17.4894 12.7526 17.4894 11.1641C17.4894 10.9734 17.5651 10.7906 17.6999 10.6558C17.8347 10.521 18.0175 10.4453 18.2082 10.4453Z" fill="white"/>
<path d="M11.5 17.1543C11.6737 17.1543 11.8415 17.2172 11.9724 17.3314C12.1033 17.4455 12.1884 17.6032 12.212 17.7753L12.2187 17.873V19.8855C12.2187 20.0677 12.1495 20.2429 12.0252 20.376C11.9009 20.5091 11.7307 20.59 11.549 20.6024C11.3673 20.6148 11.1877 20.5578 11.0464 20.4429C10.9052 20.328 10.8128 20.1637 10.788 19.9833L10.7812 19.8855V17.873C10.7812 17.6824 10.857 17.4996 10.9918 17.3648C11.1266 17.23 11.3094 17.1543 11.5 17.1543Z" fill="white"/>
</g>
<defs>
<clipPath id="clip0_40000020_3248">
<rect width="23" height="23" fill="white"/>
</clipPath>
</defs>
</svg>
