<svg width="23" height="24" viewBox="0 0 23 24" fill="none" xmlns="http://www.w3.org/2000/svg">
<path d="M18.2085 3.25C18.6296 3.25004 19.0352 3.41533 19.3448 3.71305C19.6545 4.01076 19.8454 4.41912 19.8798 4.857L19.8856 5V7.586C19.8856 7.992 19.7505 8.383 19.5061 8.695L19.394 8.823L14.4039 14.03C14.2755 14.163 14.1038 14.2405 13.923 14.2471C13.7422 14.2538 13.5656 14.189 13.4286 14.0658C13.2915 13.9426 13.204 13.77 13.1836 13.5825C13.1631 13.3949 13.2111 13.2062 13.3181 13.054L13.3881 12.97L18.3781 7.763C18.408 7.73202 18.4295 7.69339 18.4404 7.651L18.4481 7.586V5C18.448 4.94368 18.4297 4.88904 18.3961 4.84493C18.3626 4.80083 18.3157 4.76984 18.2631 4.757L18.2085 4.75H4.79185C4.73787 4.75009 4.68551 4.7692 4.64324 4.80423C4.60097 4.83926 4.57128 4.88816 4.55897 4.943L4.55226 5V7.586C4.55226 7.63 4.56376 7.673 4.58389 7.711L4.62222 7.763L9.61226 12.97C9.73968 13.104 9.81399 13.2832 9.82035 13.4719C9.82672 13.6605 9.76468 13.8447 9.64661 13.9878C9.52854 14.1308 9.36313 14.2221 9.18339 14.2434C9.00365 14.2648 8.8228 14.2147 8.67693 14.103L8.59643 14.03L3.60735 8.825C3.33275 8.53886 3.16201 8.16203 3.12435 7.759L3.11572 7.586V5C3.11574 4.56081 3.27401 4.13768 3.55912 3.81461C3.84424 3.49154 4.23534 3.29214 4.65481 3.256L4.79185 3.25H18.2085Z" fill="white"/>
<path d="M13.896 12.75C14.0697 12.75 14.2375 12.8156 14.3684 12.9348C14.4993 13.0539 14.5844 13.2184 14.6081 13.398L14.6148 13.5V19.124C14.6148 19.5424 14.4891 19.9503 14.2553 20.2903C14.0214 20.6302 13.6913 20.8851 13.3114 21.019L13.1629 21.065L10.7671 21.69C10.496 21.7608 10.2134 21.7688 9.9391 21.7137C9.66476 21.6585 9.4053 21.5414 9.17889 21.3706C8.95248 21.1998 8.76459 20.9794 8.62839 20.7248C8.49218 20.4703 8.41095 20.1877 8.39039 19.897L8.3856 19.749V13.5C8.38565 13.31 8.45483 13.1271 8.57915 12.9882C8.70348 12.8494 8.87368 12.7649 9.05536 12.752C9.23704 12.739 9.41666 12.7985 9.55793 12.9184C9.69919 13.0383 9.79157 13.2097 9.81639 13.398L9.8231 13.5V19.749C9.82293 19.8178 9.83637 19.8859 9.86257 19.949C9.88878 20.0122 9.9272 20.069 9.97541 20.1159C10.0236 20.1628 10.0806 20.1989 10.1428 20.2218C10.205 20.2447 10.271 20.254 10.3368 20.249L10.4182 20.234L12.8141 19.609C12.9043 19.5856 12.986 19.5353 13.0493 19.4643C13.1126 19.3933 13.1547 19.3046 13.1706 19.209L13.1773 19.124V13.5C13.1773 13.3011 13.2533 13.1107 13.3881 12.97C13.5229 12.8293 13.7054 12.75 13.896 12.75Z" fill="white"/>
</svg>
