<svg width="23" height="24" viewBox="0 0 23 24" fill="none" xmlns="http://www.w3.org/2000/svg">
<path d="M8.95754 9.35C9.2913 9.00138 9.68763 8.72481 10.1239 8.53612C10.5601 8.34742 11.0278 8.2503 11.5 8.2503C11.9722 8.2503 12.4399 8.34742 12.8761 8.53612C13.3124 8.72481 13.7087 9.00138 14.0425 9.35C14.716 10.0539 15.0943 11.0078 15.0943 12.0025C15.0943 12.9972 14.716 13.9511 14.0425 14.655C13.3679 15.3581 12.4534 15.753 11.5 15.753C10.5466 15.753 9.6321 15.3581 8.95754 14.655C8.28402 13.9511 7.90573 12.9972 7.90573 12.0025C7.90573 11.0078 8.28402 10.0539 8.95754 9.35ZM12.9011 10.29C12.4884 9.9218 11.9577 9.72963 11.4152 9.75188C10.8726 9.77412 10.3581 10.0091 9.97433 10.41C9.57018 10.8324 9.3431 11.4049 9.34292 12.0018C9.34274 12.5987 9.56947 13.1713 9.97337 13.594C10.8167 14.473 12.1833 14.473 13.0247 13.595C13.4086 13.194 13.6336 12.6568 13.6549 12.0905C13.6762 11.5241 13.4923 10.9702 13.1397 10.539L13.0237 10.409L12.9011 10.29Z" fill="white"/>
<path d="M11.5 4.25C7.6935 4.25 4.232 6.399 2.6565 9.758L2.54917 10.005C2.29111 10.6357 2.15748 11.3142 2.15625 12C2.15625 12.774 2.32683 13.538 2.6565 14.242L2.79067 14.516C4.43517 17.73 7.81042 19.75 11.5 19.75C15.3065 19.75 18.768 17.601 20.3435 14.242L20.4508 13.995C20.7134 13.347 20.8437 12.677 20.8437 12C20.8437 11.226 20.6732 10.462 20.3435 9.758L20.2093 9.484C18.5648 6.27 15.1896 4.25 11.5 4.25ZM11.5 5.75C14.6702 5.75 17.5528 7.476 18.9347 10.178L19.0574 10.429C19.2855 10.916 19.4062 11.456 19.4062 12C19.4062 12.476 19.3142 12.948 19.1341 13.393L19.043 13.601C17.7234 16.416 14.7689 18.25 11.5 18.25C8.32983 18.25 5.44717 16.524 4.06525 13.822L3.94258 13.571C3.71345 13.0818 3.59415 12.5445 3.59375 12C3.59375 11.524 3.68575 11.052 3.86592 10.607L3.95696 10.399C5.27658 7.584 8.23112 5.75 11.5 5.75Z" fill="white"/>
</svg>
