<svg width="23" height="24" viewBox="0 0 23 24" fill="none" xmlns="http://www.w3.org/2000/svg">
<path d="M11.4999 4.25018C11.6736 4.25019 11.8414 4.31582 11.9723 4.43495C12.1032 4.55407 12.1883 4.71863 12.2119 4.89818L12.2186 5.00018V19.0002C12.2186 19.1902 12.1494 19.3731 12.0251 19.512C11.9008 19.6508 11.7306 19.7353 11.5489 19.7482C11.3672 19.7612 11.1876 19.7017 11.0463 19.5817C10.905 19.4618 10.8127 19.2904 10.7878 19.1022L10.7802 18.9992V4.99918C10.7802 4.80027 10.8559 4.6095 10.9907 4.46885C11.1255 4.3282 11.3083 4.24918 11.4989 4.24918L11.4999 4.25018Z" fill="white"/>
<path d="M10.9907 4.46885C11.1125 4.34157 11.2743 4.26451 11.4462 4.25111C11.618 4.23771 11.7888 4.28919 11.9273 4.39618L12.0078 4.46918L16.8004 9.46918C16.9294 9.60284 17.005 9.7825 17.0121 9.972C17.0192 10.1615 16.9572 10.3468 16.8386 10.4905C16.7201 10.6342 16.5537 10.7258 16.3731 10.7467C16.1925 10.7676 16.011 10.7163 15.8651 10.6032L15.7846 10.5302L11.4989 6.06018L7.21518 10.5302C7.09343 10.6575 6.9319 10.7349 6.76004 10.7483C6.58817 10.7617 6.41742 10.7102 6.27889 10.6032L6.19935 10.5292C6.07762 10.4022 6.00361 10.2338 5.99077 10.0547C5.97793 9.87562 6.02712 9.69765 6.12939 9.55318L6.19935 9.46918L10.9907 4.46885Z" fill="white"/>
</svg>
