<svg width="23" height="24" viewBox="0 0 23 24" fill="none" xmlns="http://www.w3.org/2000/svg">
<path d="M13.896 2.25C14.0866 2.25 14.2694 2.32902 14.4042 2.46967C14.539 2.61032 14.6147 2.80109 14.6147 3V6.5C14.6147 7.19 15.1514 7.75 15.8127 7.75H19.1668C19.3575 7.75 19.5403 7.82902 19.6751 7.96967C19.8099 8.11032 19.8856 8.30109 19.8856 8.5C19.8856 8.69891 19.8099 8.88968 19.6751 9.03033C19.5403 9.17098 19.3575 9.25 19.1668 9.25H15.8127C15.1137 9.25 14.4434 8.96027 13.9491 8.44454C13.4549 7.92882 13.1772 7.22935 13.1772 6.5V3C13.1772 2.80109 13.253 2.61032 13.3878 2.46967C13.5226 2.32902 13.7054 2.25 13.896 2.25Z" fill="white"/>
<path d="M14.3752 16.25C14.5658 16.25 14.7486 16.329 14.8834 16.4697C15.0182 16.6103 15.0939 16.8011 15.0939 17C15.0939 17.1989 15.0182 17.3897 14.8834 17.5303C14.7486 17.671 14.5658 17.75 14.3752 17.75H8.62516C8.43454 17.75 8.25172 17.671 8.11693 17.5303C7.98214 17.3897 7.90641 17.1989 7.90641 17C7.90641 16.8011 7.98214 16.6103 8.11693 16.4697C8.25172 16.329 8.43454 16.25 8.62516 16.25H14.3752Z" fill="white"/>
<path d="M13.8672 11.47C13.933 11.3963 14.0124 11.3372 14.1006 11.2962C14.1887 11.2552 14.2839 11.2332 14.3804 11.2314C14.4769 11.2296 14.5728 11.2482 14.6623 11.2859C14.7518 11.3236 14.8331 11.3797 14.9013 11.451C14.9696 11.5222 15.0234 11.607 15.0595 11.7004C15.0957 11.7938 15.1134 11.8938 15.1117 11.9945C15.11 12.0952 15.0889 12.1945 15.0496 12.2865C15.0103 12.3785 14.9537 12.4613 14.8831 12.53L12.9664 14.53C12.8375 14.6645 12.6644 14.7428 12.4822 14.7491C12.3 14.7554 12.1223 14.6893 11.9851 14.564L10.5418 13.246L9.09858 14.564C8.96898 14.6827 8.80283 14.7487 8.63042 14.7502C8.45802 14.7517 8.29085 14.6884 8.15941 14.572L8.08466 14.494C7.95916 14.3444 7.89573 14.1489 7.90831 13.9505C7.92089 13.7521 8.00845 13.5671 8.15175 13.436L10.0684 11.686C10.1995 11.5663 10.3677 11.5003 10.5418 11.5003C10.716 11.5003 10.8842 11.5663 11.0152 11.686L12.425 12.973L13.8672 11.47Z" fill="white"/>
<path d="M14.1423 2.25C14.6143 2.24991 15.0816 2.34683 15.5177 2.53522C15.9538 2.72362 16.35 2.9998 16.6838 3.348L18.8333 5.591C19.167 5.93929 19.4317 6.35276 19.6122 6.80779C19.7928 7.26282 19.8857 7.75051 19.8856 8.243V18C19.8856 18.9946 19.507 19.9484 18.833 20.6517C18.159 21.3549 17.245 21.75 16.2918 21.75H6.7085C5.75537 21.75 4.84129 21.3549 4.16733 20.6517C3.49337 19.9484 3.11475 18.9946 3.11475 18V6C3.11475 5.00544 3.49337 4.05161 4.16733 3.34835C4.84129 2.64509 5.75537 2.25 6.7085 2.25H14.1423ZM6.7085 3.75C6.13662 3.75 5.58817 3.98705 5.1838 4.40901C4.77942 4.83097 4.55225 5.40326 4.55225 6V18C4.55225 18.5967 4.77942 19.169 5.1838 19.591C5.58817 20.0129 6.13662 20.25 6.7085 20.25H16.2918C16.8637 20.25 17.4122 20.0129 17.8165 19.591C18.2209 19.169 18.4481 18.5967 18.4481 18V8.243C18.4481 7.94752 18.3923 7.65494 18.284 7.38196C18.1756 7.10897 18.0168 6.86093 17.8165 6.652L15.667 4.409C15.2629 3.98729 14.7148 3.75026 14.1432 3.75H6.7085Z" fill="white"/>
</svg>
